<svg width="563" height="438" viewBox="0 0 563 438" fill="none" xmlns="http://www.w3.org/2000/svg">
<g filter="url(#filter0_d_42_1012)">
<rect x="7" y="42.375" width="200" height="371.733" rx="12.8" transform="rotate(-12 7 42.375)" fill="white"/>
<rect x="9.53026" y="44.0182" width="195.733" height="367.467" rx="10.6667" transform="rotate(-12 9.53026 44.0182)" stroke="#0410A2" stroke-opacity="0.1" stroke-width="4.26667"/>
<g clip-path="url(#clip0_42_1012)">
<path d="M14.6336 55.2011C13.4088 49.4388 17.0872 43.7747 22.8495 42.5499L188.222 7.39892C193.984 6.1741 199.648 9.85246 200.873 15.6148L220.832 109.517L34.5931 149.103L14.6336 55.2011Z" fill="#0410A2"/>
<path d="M27.1895 58.1558C26.4677 58.7166 25.8646 59.1923 25.8494 59.2155C25.8342 59.2387 25.8778 59.2733 25.956 59.3006C26.0938 59.3432 26.0947 59.347 26.1596 59.6527C26.21 59.8896 26.2133 59.9808 26.1752 60.0288C26.1432 60.0676 26.14 60.1282 26.1678 60.2021C26.1885 60.2616 26.2031 60.4063 26.1989 60.519C26.19 60.6287 26.188 60.733 26.1913 60.7482C26.1954 60.7673 26.3094 60.7551 26.4442 60.7264L26.6906 60.6741L26.5863 60.4486C26.5271 60.3214 26.4778 60.1841 26.4796 60.1358C26.4822 60.0913 26.4522 60.0258 26.4125 59.9904C26.3681 59.9519 26.3228 59.8337 26.28 59.6511L26.2215 59.376L26.6046 59.4743C26.8135 59.5297 26.9915 59.5718 27.003 59.5693C27.0107 59.5677 27.0188 59.53 27.0214 59.4855C27.0273 59.3804 27.5011 59.0161 27.8925 58.8131C28.1359 58.6895 28.2904 58.6407 28.8371 58.5245C29.4331 58.3938 29.5232 58.3826 29.8823 58.4062C30.0986 58.4201 30.4386 58.4676 30.6452 58.5116C30.8486 58.5602 31.0365 58.5921 31.0635 58.5864C31.1289 58.5725 31.8416 58.0256 31.8626 57.9732C31.8776 57.9301 28.6392 57.1009 28.5522 57.1274C28.5253 57.1331 27.9121 57.5989 27.1895 58.1558Z" fill="#DCDFFE"/>
<path d="M28.1314 59.0844C27.9585 59.161 27.7124 59.3092 27.5769 59.4099L27.335 59.5971L27.3815 59.9107L27.428 60.2243L27.172 60.5343C26.5389 61.3039 26.319 62.1813 26.5196 63.1251C26.656 63.767 26.973 64.3307 27.5571 64.9773C27.7734 65.2189 28.2979 65.6984 28.3714 65.7227C28.4195 65.7405 28.9165 65.523 29.251 65.3361L29.5648 65.1656L29.3074 65.1284C28.8932 65.0727 28.577 64.9482 28.1256 64.6608C27.6509 64.3583 27.4236 64.1031 27.1534 63.5894C26.9486 63.1937 26.8393 62.5659 26.8928 62.0793C26.9863 61.2128 27.6042 60.3147 28.3719 59.9318C28.7542 59.7427 29.4526 59.6023 29.8766 59.628C30.852 59.6922 31.7325 60.2758 32.1746 61.1443C32.3046 61.3962 32.4609 62.018 32.4889 62.3954L32.5027 62.6121L32.7152 62.2675L32.9276 61.9228L32.8373 61.6305C32.6707 61.0549 32.4703 60.718 32.0655 60.3089C31.7948 60.0389 31.2966 59.7015 31.0075 59.5912L30.7976 59.5121L30.7334 59.2102L30.6692 58.9084L30.4696 58.8589C30.2096 58.7904 29.7948 58.7508 29.4954 58.7625C29.136 58.775 28.4886 58.9286 28.1314 59.0844Z" fill="#DCDFFE"/>
<path d="M32.3875 58.7563C32.9296 58.8647 33.2036 59.0181 33.4565 59.3557C33.5747 59.5143 33.6088 59.5989 33.6705 59.8893C33.755 60.2867 33.7403 60.5015 33.5964 61.0553C33.2011 62.565 31.9508 64.1607 30.2932 65.2598C29.2172 65.9718 27.8552 66.4929 27.058 66.4906C26.4993 66.4935 25.9756 66.3014 25.6658 65.9798C25.6308 65.9473 25.6458 65.9801 25.6944 66.0576C25.9956 66.5088 26.5221 66.7523 27.2308 66.7734C27.4655 66.7794 27.7005 66.7494 28.2827 66.6297L29.0265 66.4756L29.4115 66.829C29.6219 67.0239 30.0521 67.4197 30.3639 67.7129L30.9314 68.2432L31.0684 67.9226C31.1437 67.7468 31.2875 67.4008 31.3929 67.1587C31.4976 66.9128 31.6535 66.5482 31.7355 66.347C31.8213 66.1451 32.0306 65.6533 32.1993 65.254C32.3687 64.8586 32.4995 64.5273 32.4902 64.5213C32.4809 64.5153 32.3445 64.6121 32.1899 64.7368C31.8287 65.0253 31.3529 65.3421 31.1754 65.4158C31.0793 65.4561 31.1656 65.3699 31.4671 65.1221C32.6201 64.1861 33.298 63.3431 33.7767 62.263C34.0759 61.5883 34.1988 60.9552 34.1599 60.3364C34.1242 59.8089 33.908 59.3596 33.521 59.0345C33.3481 58.8836 32.9157 58.7239 32.6083 58.6973C32.2476 58.6662 32.1183 58.7017 32.3875 58.7563Z" fill="#DCDFFE"/>
<path d="M32.0835 59.2021C32.4297 59.3163 32.7887 59.5475 32.9864 59.777C33.1372 59.9566 33.1743 60.0366 33.2569 60.3305C33.3395 60.6245 33.3529 60.6496 33.3484 60.5148C33.3448 60.252 33.2667 59.9411 33.1558 59.741C33.0227 59.4937 32.6901 59.2729 32.3273 59.1943C31.9522 59.1142 31.8233 59.1137 32.0835 59.2021Z" fill="#DCDFFE"/>
<path d="M28.0855 61.1778C28.0313 61.2253 28.0422 61.3148 28.2225 62.1631L28.4215 63.0992L28.5563 63.0706C28.8835 63.001 29.3928 63.0685 29.5872 63.2069C29.6393 63.2437 29.6928 63.2683 29.7121 63.2642C29.7274 63.2609 29.6535 62.8374 29.5439 62.3215C29.3782 61.542 29.3285 61.3649 29.2581 61.28C29.1541 61.1503 28.8229 61.069 28.5238 61.1006C28.4021 61.1145 28.2671 61.1232 28.2231 61.1246C28.1791 61.1259 28.1161 61.1513 28.0855 61.1778Z" fill="#DCDFFE"/>
<path d="M30.2869 60.7057C29.9355 60.8323 29.7645 60.9365 29.6582 61.0989L29.558 61.252L29.7675 62.2378L29.9771 63.2236L30.0637 63.1014C30.2302 62.8623 30.6083 62.6342 30.9624 62.5589L31.1164 62.5262L30.9223 61.6129C30.7566 60.8335 30.7181 60.6899 30.6536 60.6517C30.6155 60.6238 30.5606 60.6115 30.5375 60.6165C30.5114 60.626 30.3991 60.6658 30.2869 60.7057Z" fill="#DCDFFE"/>
<path d="M27.6279 61.5995C27.5732 61.683 27.9937 63.6423 28.0752 63.6849C28.1023 63.6991 28.303 63.6964 28.5119 63.676C29.107 63.6174 29.452 63.6878 29.7725 63.9272C29.96 64.0711 30.0876 64.028 30.2531 63.7651C30.4702 63.4235 30.7499 63.2442 31.3807 63.0502C31.5884 62.9861 31.6605 62.9468 31.6761 62.8876C31.7097 62.7806 31.316 60.9473 31.2448 60.8586C31.2136 60.8253 31.1524 60.8024 31.1139 60.8106C31.0407 60.8261 31.0434 60.8575 31.2399 61.7822L31.443 62.7374L31.262 62.7759C30.7778 62.8828 30.2763 63.1931 30.0722 63.52L29.9385 63.7242L29.7565 63.5871C29.6562 63.5126 29.4855 63.4291 29.374 63.3969C29.1442 63.3379 28.6402 63.3332 28.3823 63.388L28.209 63.4248L28.006 62.4696C27.8159 61.5755 27.7991 61.5151 27.7336 61.5291C27.6951 61.5372 27.6491 61.567 27.6279 61.5995Z" fill="#DCDFFE"/>
<path d="M25.676 63.5493C25.5328 64.011 25.4957 64.5181 25.5741 64.9248C25.6344 65.2275 25.6644 65.293 25.8061 65.4865C25.9909 65.7308 26.1952 65.8591 26.5124 65.9314C26.7738 65.9877 27.2765 65.9487 27.5572 65.8491L27.7624 65.7736L27.483 65.7651C26.6383 65.729 26.0327 65.3784 25.8026 64.7884C25.6908 64.5086 25.6653 64.0667 25.7316 63.6213C25.7619 63.4232 25.7841 63.2627 25.7764 63.2643C25.7687 63.266 25.7238 63.3953 25.676 63.5493Z" fill="#DCDFFE"/>
<path d="M34.1838 62.4566C34.0846 62.7093 33.5427 63.5673 33.1593 64.0921C32.9774 64.3345 32.9638 64.3653 33.0754 64.2657C33.6214 63.7862 34.1028 63.0409 34.2699 62.4263C34.3419 62.1594 34.2973 62.1769 34.1838 62.4566Z" fill="#DCDFFE"/>
<path d="M29.8132 68.4152C29.6494 68.478 29.4521 68.5719 29.3747 68.6243L29.2345 68.7219L29.3385 68.7757C29.524 68.8721 29.9736 68.8484 30.7823 68.6965C31.7967 68.5088 32.4542 68.2892 32.6233 68.0815L32.6973 67.9939L32.5688 67.9573C32.3041 67.8858 31.4376 67.9741 31.4232 68.077C31.4212 68.1054 31.5509 68.1098 31.7915 68.0866C31.9965 68.067 32.2087 68.0618 32.2606 68.0787C32.3504 68.1036 32.355 68.1066 32.3001 68.1702C32.2025 68.2788 31.8617 68.3792 30.9724 68.5682C30.1592 68.7371 29.7067 68.7853 29.635 68.7127C29.5835 68.6598 29.7445 68.5656 30.0936 68.4475C30.4727 68.319 30.4972 68.3018 30.4058 68.2693C30.3229 68.239 30.1852 68.2723 29.8132 68.4152Z" fill="#DCDFFE"/>
<path d="M41.013 64.1697C40.5223 64.274 40.0621 64.2605 39.6325 64.1294C39.2076 63.991 38.8456 63.7559 38.5464 63.424C38.2472 63.0921 38.0467 62.6867 37.9449 62.2078L37.1324 58.3853L38.3386 58.1289L39.1586 61.9869C39.2177 62.2648 39.3247 62.4923 39.4798 62.6694C39.6408 62.8453 39.8337 62.9681 40.0586 63.0377C40.2882 63.1001 40.5271 63.105 40.7755 63.0522C41.0297 62.9981 41.2431 62.8972 41.4156 62.7493C41.5868 62.5955 41.7072 62.4061 41.7768 62.1812C41.8524 61.955 41.8612 61.706 41.8034 61.434L40.9815 57.5672L42.1965 57.3089L43.0109 61.1402C43.1127 61.6192 43.0944 62.0711 42.9561 62.496C42.8165 62.915 42.5808 63.2741 42.2488 63.5733C41.9216 63.8653 41.5096 64.0641 41.013 64.1697ZM47.3823 62.7231L46.8601 60.2665C46.8061 60.0122 46.6822 59.8222 46.4887 59.6965C46.2951 59.5708 46.0712 59.535 45.817 59.589C45.6514 59.6242 45.5111 59.6911 45.3961 59.7897C45.2811 59.8883 45.199 60.0108 45.1498 60.1572C45.1065 60.3024 45.1031 60.4607 45.1395 60.6322L44.6382 60.4977C44.5666 60.1607 44.5753 59.853 44.6644 59.5745C44.7582 59.2888 44.9171 59.048 45.1412 58.8521C45.3712 58.6549 45.6488 58.5217 45.974 58.4526C46.2874 58.386 46.5852 58.4061 46.8674 58.513C47.1484 58.6139 47.3869 58.7764 47.5828 59.0005C47.7775 59.2187 47.9057 59.4726 47.9672 59.7623L48.5441 62.4762L47.3823 62.7231ZM44.4999 63.3358L43.5894 59.0521L44.7512 58.8052L45.6617 63.0888L44.4999 63.3358ZM49.3913 62.2961L48.4808 58.0124L49.6514 57.7636L50.562 62.0473L49.3913 62.2961ZM48.9191 57.1963C48.7299 57.2365 48.56 57.2077 48.4094 57.1099C48.2576 57.0062 48.1616 56.8598 48.1214 56.6706C48.0824 56.4873 48.1112 56.3174 48.2077 56.161C48.3042 56.0045 48.4471 55.9061 48.6363 55.8659C48.8314 55.8245 49.0019 55.8562 49.1478 55.9611C49.2996 56.0648 49.395 56.2083 49.434 56.3916C49.4742 56.5808 49.446 56.7536 49.3495 56.9101C49.2577 57.0594 49.1142 57.1548 48.9191 57.1963ZM51.6266 61.821L50.3014 55.5862L51.1439 55.4071L51.7639 56.5359L52.8328 61.5646L51.6266 61.821ZM55.9369 60.9048L51.2206 56.9017L51.1439 55.4071L55.8602 59.4101L55.9369 60.9048ZM55.9369 60.9048L55.3422 59.8076L54.2658 54.7435L55.4808 54.4852L56.806 60.72L55.9369 60.9048ZM59.6679 60.2044C59.2777 60.2874 58.9052 60.2646 58.5503 60.1361C58.1955 60.0076 57.8936 59.7937 57.6445 59.4944C57.3955 59.195 57.2264 58.8355 57.1372 58.4157C57.0467 57.99 57.0543 57.5898 57.1601 57.2151C57.2658 56.8403 57.4546 56.5221 57.7265 56.2604C57.9984 55.9987 58.3295 55.8263 58.7197 55.7434C59.0271 55.678 59.3153 55.6817 59.5841 55.7543C59.8529 55.827 60.0821 55.9605 60.2718 56.1551C60.4661 56.3424 60.5987 56.5738 60.6696 56.8491L60.9976 58.3923C61.0461 58.6786 61.0197 58.9469 60.9184 59.1971C60.823 59.446 60.6679 59.6613 60.4531 59.8429C60.2371 60.0186 59.9754 60.1391 59.6679 60.2044ZM59.6527 59.0861C59.9779 59.0169 60.2183 58.8546 60.3741 58.599C60.5287 58.3375 60.5695 58.0353 60.4966 57.6924C60.4488 57.4677 60.3594 57.2797 60.2284 57.1283C60.102 56.9698 59.946 56.8608 59.7603 56.8014C59.5793 56.7348 59.3794 56.7248 59.1606 56.7713C58.9478 56.8165 58.7693 56.907 58.6251 57.0427C58.4856 57.1712 58.3873 57.3342 58.3304 57.5317C58.2782 57.722 58.276 57.9295 58.3237 58.1542C58.3727 58.3848 58.4604 58.5794 58.5868 58.7379C58.7179 58.8893 58.8739 58.9982 59.0549 59.0648C59.2406 59.1242 59.4398 59.1313 59.6527 59.0861ZM60.8907 59.8518L60.6456 58.6989L60.6094 57.6128L60.2045 56.6236L59.9802 55.5682L61.1331 55.3231L62.0437 59.6068L60.8907 59.8518ZM64.3752 59.1112L61.5756 55.2291L62.8527 54.9576L64.9599 58.199L64.3302 58.3328L64.9458 54.5127L66.1785 54.2507L65.2089 58.934L64.3752 59.1112Z" fill="#DCDFFE"/>
<rect x="141.702" y="27.1016" width="23.4667" height="23.4667" rx="11.7333" transform="rotate(-12 141.702 27.1016)" fill="white"/>
<g clip-path="url(#clip1_42_1012)">
<path d="M151.757 38.2185C151.793 38.8442 152.296 39.177 152.847 39.2791C154.958 39.6704 157.658 39.0965 159.427 37.8804C159.888 37.5632 160.212 37.0547 159.991 36.4684C159.855 36.108 159.508 35.8576 159.236 35.599C158.878 35.2554 158.757 34.8232 158.658 34.3572C158.276 32.5565 156.501 31.408 154.694 31.7921C152.887 32.1761 151.733 33.9472 152.116 35.7479C152.215 36.2139 152.281 36.6576 152.094 37.1171C151.95 37.4642 151.735 37.834 151.757 38.2185Z" stroke="black" stroke-width="0.8" stroke-linecap="round" stroke-linejoin="round"/>
<path d="M154.526 39.5518C154.885 40.2594 155.706 40.6642 156.542 40.4863C157.379 40.3085 157.964 39.6049 158.004 38.8125" stroke="black" stroke-width="0.8" stroke-linecap="round" stroke-linejoin="round"/>
</g>
<circle cx="159.882" cy="25.4153" r="2.66667" transform="rotate(-12 159.882 25.4153)" fill="#16B364" stroke="#EDFCF2" stroke-width="0.533333"/>
<rect x="172.339" y="21.8156" width="21.0667" height="21.0667" rx="4.13333" transform="rotate(-12 172.339 21.8156)" stroke="#DCDFE3" stroke-width="0.266667"/>
<g clip-path="url(#clip2_42_1012)">
<path d="M179.882 27.1641L188.229 25.3899" stroke="white" stroke-width="0.8" stroke-linecap="round" stroke-linejoin="round"/>
<path d="M180.659 30.8154L189.005 29.0413" stroke="white" stroke-width="0.8" stroke-linecap="round" stroke-linejoin="round"/>
<path d="M181.435 34.4678L189.782 32.6936" stroke="white" stroke-width="0.8" stroke-linecap="round" stroke-linejoin="round"/>
</g>
<path d="M35.8818 99.1011L31.1608 90.8659L33.114 90.4507L36.6374 96.8075L35.8737 96.9698L36.4569 89.7402L37.9969 89.4128L41.4703 95.7802L40.7191 95.9399L41.3398 88.7023L43.2805 88.2898L42.3172 97.7332L40.7772 98.0606L37.2914 91.6958L38.0175 91.5415L37.4218 98.7738L35.8818 99.1011ZM48.2993 96.6056C47.6399 96.7458 47.0231 96.7373 46.4488 96.5802C45.8811 96.413 45.3997 96.1184 45.0047 95.6964C44.6096 95.2743 44.3473 94.7587 44.2178 94.1494C44.0883 93.54 44.1149 92.9673 44.2976 92.4312C44.4868 91.885 44.7984 91.4218 45.2323 91.0417C45.6662 90.6616 46.192 90.4059 46.8097 90.2746C47.4106 90.1469 47.9682 90.1636 48.4822 90.3248C48.9963 90.4859 49.4315 90.7686 49.7879 91.1726C50.1525 91.5749 50.3979 92.0724 50.5238 92.665C50.5469 92.7735 50.5634 92.8922 50.5733 93.0209C50.5898 93.1395 50.5982 93.2817 50.5985 93.4474L45.3552 94.575L45.0757 93.2604L49.5053 92.3057L48.796 93.0323C48.7132 92.6835 48.5977 92.4071 48.4496 92.203C48.2998 91.9906 48.1123 91.8472 47.8871 91.7729C47.6685 91.6885 47.4173 91.6765 47.1336 91.7368C46.8331 91.8007 46.5852 91.9275 46.39 92.1173C46.2014 92.297 46.0711 92.5253 45.9991 92.8024C45.9355 93.0776 45.9418 93.3947 46.0181 93.7536C46.0944 94.1125 46.2226 94.408 46.4028 94.6402C46.5896 94.8622 46.8149 95.0193 47.0788 95.1115C47.3493 95.1936 47.6472 95.2001 47.9728 95.1309C48.2733 95.067 48.5339 94.9593 48.7546 94.8077C48.9736 94.6477 49.1528 94.4439 49.2921 94.1962L50.5673 95.0243C50.3413 95.4388 50.0341 95.7789 49.6457 96.0447C49.2573 96.3104 48.8085 96.4974 48.2993 96.6056ZM52.1244 95.6486L50.1923 86.5589L52.108 86.1517L54.04 95.2415L52.1244 95.6486ZM58.3605 94.4671C57.7345 94.6001 57.1377 94.583 56.57 94.4158C56.0023 94.2486 55.5209 93.954 55.1258 93.532C54.7308 93.1099 54.4694 92.5984 54.3417 91.9975C54.2121 91.3881 54.2429 90.8145 54.4339 90.2767C54.6315 89.7287 54.9556 89.2629 55.4062 88.8792C55.8568 88.4955 56.3993 88.2363 57.0337 88.1014C57.5094 88.0003 57.9612 87.9915 58.389 88.0751C58.8234 88.1485 59.2295 88.3151 59.6076 88.575L58.6414 90.0628C58.4658 89.9344 58.274 89.853 58.0661 89.8187C57.8665 89.7826 57.6456 89.7903 57.4036 89.8417C57.1281 89.9003 56.8952 90.0152 56.7048 90.1866C56.521 90.3478 56.3895 90.5502 56.3104 90.7938C56.2379 91.0273 56.2318 91.286 56.2922 91.5698C56.3525 91.8536 56.4641 92.0916 56.6271 92.2837C56.7985 92.4742 57.0059 92.6089 57.2496 92.688C57.4932 92.767 57.7486 92.7782 58.0157 92.7214C58.2661 92.6682 58.4784 92.5794 58.6526 92.4552C58.8334 92.3208 58.9779 92.1592 59.0861 91.9704L60.5614 92.9393C60.3152 93.3406 60.0104 93.6715 59.647 93.9319C59.2818 94.184 58.853 94.3624 58.3605 94.4671ZM64.4125 93.1807C63.7865 93.3137 63.1897 93.2967 62.622 93.1294C62.0608 92.9521 61.5827 92.6524 61.1877 92.2304C60.7926 91.8084 60.5313 91.2969 60.4035 90.6959C60.2758 90.0949 60.3074 89.5255 60.4984 88.9876C60.6894 88.4498 61.0061 87.9899 61.4483 87.608C61.8888 87.2177 62.4262 86.9552 63.0606 86.8204C63.695 86.6855 64.2918 86.7026 64.8512 86.8716C65.4106 87.0406 65.8878 87.3361 66.2828 87.7581C66.6761 88.1718 66.9366 88.6791 67.0643 89.2801C67.1921 89.8811 67.1613 90.4547 66.9721 91.0009C66.7828 91.5471 66.468 92.0153 66.0275 92.4056C65.5852 92.7875 65.0469 93.0458 64.4125 93.1807ZM64.0426 91.4403C64.3181 91.3818 64.5477 91.2719 64.7315 91.1107C64.9136 90.9412 65.0358 90.7363 65.0982 90.4962C65.1672 90.246 65.1715 89.979 65.1111 89.6953C65.0508 89.4115 64.9401 89.1776 64.7788 88.9938C64.6159 88.8016 64.4176 88.6693 64.1841 88.5968C63.9572 88.5142 63.706 88.5021 63.4305 88.5607C63.1634 88.6175 62.9388 88.7306 62.7568 88.9002C62.573 89.0614 62.4457 89.2629 62.3749 89.5048C62.3042 89.7466 62.299 90.0095 62.3593 90.2933C62.4179 90.5687 62.5295 90.8067 62.6943 91.0072C62.8573 91.1994 63.0564 91.3359 63.2917 91.4168C63.5252 91.4893 63.7755 91.4971 64.0426 91.4403ZM68.6674 92.1323L67.374 86.0475L69.2896 85.6403L70.583 91.7252L68.6674 92.1323ZM72.5612 91.3047L71.8054 87.7489C71.7397 87.4401 71.5932 87.2226 71.3657 87.0965C71.1448 86.9602 70.8966 86.9214 70.6212 86.9799C70.4292 87.0207 70.267 87.0988 70.1345 87.2142C70.0002 87.3213 69.9022 87.4555 69.8406 87.6169C69.7873 87.7766 69.7828 87.9607 69.8272 88.1694L69.0193 88.0009C68.9164 87.5168 68.9329 87.0814 69.0688 86.6948C69.203 86.2999 69.43 85.9725 69.7499 85.7126C70.068 85.4443 70.4524 85.2623 70.9031 85.1665C71.3288 85.076 71.729 85.0912 72.1037 85.2123C72.4867 85.3315 72.8148 85.5409 73.0878 85.8406C73.3609 86.1402 73.548 86.5279 73.6491 87.0037L74.4768 90.8975L72.5612 91.3047ZM76.455 90.477L75.6992 86.9213C75.6335 86.6124 75.487 86.3949 75.2595 86.2688C75.0386 86.1326 74.7905 86.0937 74.515 86.1523C74.323 86.1931 74.1608 86.2712 74.0283 86.3866C73.894 86.4936 73.7961 86.6279 73.7344 86.7893C73.6811 86.9489 73.6766 87.1331 73.721 87.3417L72.5872 87.4257C72.4939 86.9046 72.5209 86.4365 72.6682 86.0214C72.8221 85.5961 73.0656 85.2434 73.3986 84.9632C73.7382 84.6729 74.1459 84.4772 74.6217 84.3761C75.0891 84.2767 75.5235 84.2891 75.925 84.4131C76.3331 84.527 76.6805 84.7454 76.9672 85.0683C77.2605 85.3811 77.4613 85.7921 77.5695 86.3012L78.3706 90.0698L76.455 90.477ZM82.6323 89.3079C81.9729 89.4481 81.3561 89.4396 80.7818 89.2825C80.2141 89.1153 79.7327 88.8207 79.3377 88.3987C78.9426 87.9766 78.6803 87.461 78.5508 86.8517C78.4213 86.2423 78.4479 85.6696 78.6305 85.1335C78.8198 84.5873 79.1314 84.1241 79.5653 83.744C79.9992 83.3639 80.525 83.1082 81.1426 82.9769C81.7436 82.8492 82.3011 82.8659 82.8152 83.0271C83.3293 83.1882 83.7645 83.4709 84.1208 83.8749C84.4855 84.2772 84.7308 84.7747 84.8568 85.3673C84.8799 85.4758 84.8964 85.5945 84.9063 85.7232C84.9228 85.8418 84.9312 85.984 84.9315 86.1497L79.6882 87.2773L79.4087 85.9627L83.8383 85.008L83.129 85.7346C83.0461 85.3858 82.9307 85.1094 82.7826 84.9053C82.6328 84.6929 82.4453 84.5495 82.2201 84.4752C82.0015 84.3908 81.7503 84.3788 81.4665 84.4391C81.166 84.503 80.9182 84.6298 80.723 84.8196C80.5344 84.9993 80.4041 85.2276 80.3321 85.5047C80.2685 85.7799 80.2748 86.097 80.3511 86.4559C80.4274 86.8148 80.5556 87.1103 80.7358 87.3425C80.9226 87.5645 81.1479 87.7216 81.4118 87.8138C81.6822 87.8959 81.9802 87.9024 82.3057 87.8332C82.6062 87.7693 82.8669 87.6616 83.0876 87.51C83.3066 87.35 83.4858 87.1462 83.625 86.8985L84.9003 87.7266C84.6743 88.1411 84.3671 88.4812 83.9787 88.747C83.5902 89.0127 83.1415 89.1997 82.6323 89.3079ZM86.7768 89.8534L87.3288 87.9563L87.8576 87.6738C87.8258 87.8114 87.777 87.9309 87.7113 88.0321C87.6438 88.1249 87.5558 88.1829 87.4473 88.206C87.2052 88.2574 86.9628 88.2043 86.7199 88.0465C86.477 87.8888 86.3236 87.6597 86.2597 87.3592C86.1905 87.0336 86.2396 86.731 86.4069 86.4511C86.5826 86.1695 86.8332 85.9941 87.1587 85.9249C87.4676 85.8593 87.7595 85.9193 88.0346 86.1052C88.3162 86.2808 88.4925 86.5356 88.5634 86.8695C88.5918 87.0031 88.5996 87.1628 88.5868 87.3487C88.5739 87.5346 88.5226 87.7855 88.4327 88.1012L87.8124 90.1698L86.7768 89.8534Z" fill="white"/>
<rect width="42.6668" height="16.0872" transform="translate(35.5765 112.687) rotate(-12)" fill="#DCDFFE"/>
<rect width="42.6668" height="16.0872" transform="translate(85.7073 102.031) rotate(-12)" fill="#DCDFFE"/>
<rect width="42.6668" height="16.0872" transform="translate(135.838 91.375) rotate(-12)" fill="#DCDFFE"/>
<rect width="42.6668" height="16.0872" transform="translate(185.969 80.7197) rotate(-12)" fill="#DCDFFE"/>
</g>
<g clip-path="url(#clip3_42_1012)">
<rect width="56" height="12.2667" transform="translate(40.4625 158.761) rotate(-12)" fill="#1D1E31"/>
<rect width="206.871" height="10.6667" transform="translate(43.3699 172.438) rotate(-12)" fill="#AFAFB6"/>
<rect x="47.3756" y="191.283" width="13.7342" height="13.7342" rx="6.86709" transform="rotate(-12 47.3756 191.283)" fill="#030D81"/>
<path d="M55.8861 199.051L54.9752 194.765L54.1814 195.506L54.0637 194.952L54.8582 194.215L55.3586 194.108L56.3866 198.945L55.8861 199.051Z" fill="white"/>
<rect width="21.2693" height="0.429193" transform="translate(63.8721 194.578) rotate(-12)" fill="#DCDFE3"/>
<path d="M63.8722 194.578C64.104 194.529 64.332 194.677 64.3812 194.909C64.4305 195.141 64.2825 195.368 64.0507 195.418L63.8722 194.578Z" fill="#030D81"/>
<rect x="95.5573" y="181.481" width="12.8758" height="12.8758" rx="6.4379" transform="rotate(-12 95.5573 181.481)" stroke="#030D81" stroke-width="0.858386"/>
<path d="M102.092 189.226L101.999 188.775L103.766 186.336C103.918 186.126 104.008 185.938 104.036 185.773C104.066 185.605 104.063 185.437 104.027 185.269C103.985 185.07 103.899 184.9 103.771 184.759C103.643 184.617 103.489 184.517 103.31 184.456C103.131 184.394 102.943 184.384 102.746 184.425C102.54 184.469 102.366 184.557 102.226 184.69C102.086 184.823 101.986 184.98 101.926 185.161C101.869 185.342 101.861 185.527 101.904 185.717L101.4 185.824C101.338 185.531 101.351 185.253 101.441 184.991C101.53 184.728 101.679 184.506 101.888 184.323C102.097 184.138 102.352 184.014 102.652 183.95C102.945 183.888 103.223 183.902 103.485 183.991C103.749 184.077 103.973 184.224 104.158 184.431C104.344 184.634 104.467 184.88 104.528 185.166C104.571 185.368 104.584 185.551 104.568 185.716C104.553 185.878 104.508 186.036 104.434 186.19C104.36 186.342 104.26 186.503 104.133 186.675L102.564 188.841L102.444 188.656L105.148 188.081L105.249 188.555L102.092 189.226Z" fill="#10384F"/>
<rect width="21.2693" height="0.429193" transform="translate(111.545 184.445) rotate(-12)" fill="#DCDFE3"/>
<path d="M111.545 184.445C111.777 184.396 112.005 184.544 112.054 184.776C112.103 185.008 111.955 185.236 111.723 185.285L111.545 184.445Z" fill="#030D81"/>
<rect x="143.23" y="171.347" width="12.8758" height="12.8758" rx="6.4379" transform="rotate(-12 143.23 171.347)" stroke="#030D81" stroke-width="0.858386"/>
<path d="M151.22 178.888C150.98 178.939 150.751 178.943 150.531 178.901C150.311 178.859 150.112 178.775 149.933 178.649C149.754 178.521 149.607 178.354 149.494 178.149L149.934 177.908C150.065 178.131 150.236 178.284 150.446 178.368C150.658 178.452 150.88 178.467 151.112 178.413C151.326 178.363 151.5 178.275 151.635 178.15C151.772 178.025 151.865 177.872 151.913 177.691C151.961 177.51 151.962 177.312 151.917 177.097C151.847 176.768 151.694 176.524 151.459 176.366C151.226 176.205 150.953 176.158 150.64 176.224C150.552 176.243 150.463 176.275 150.372 176.32C150.28 176.363 150.198 176.414 150.124 176.474L149.792 176.134L151.304 173.998L151.427 174.182L148.962 174.706L148.861 174.233L151.656 173.639L151.758 174.119L150.451 176.033L150.403 175.839C150.73 175.725 151.034 175.701 151.314 175.765C151.595 175.829 151.832 175.968 152.028 176.182C152.225 176.393 152.358 176.662 152.427 176.989C152.493 177.298 152.484 177.585 152.4 177.851C152.318 178.114 152.175 178.338 151.97 178.522C151.766 178.703 151.515 178.825 151.22 178.888Z" fill="#10384F"/>
<rect width="21.2693" height="0.429193" transform="translate(159.217 174.312) rotate(-12)" fill="#DCDFE3"/>
<path d="M159.218 174.312C159.449 174.262 159.677 174.41 159.727 174.642C159.776 174.874 159.628 175.102 159.396 175.151L159.218 174.312Z" fill="#030D81"/>
<rect x="190.903" y="161.214" width="12.8758" height="12.8758" rx="6.4379" transform="rotate(-12 190.903 161.214)" stroke="#030D81" stroke-width="0.858386"/>
<path d="M199.212 168.586L199.013 167.649L196.749 168.13L196.649 167.66L197.539 163.887L198.094 163.769L197.204 167.542L198.913 167.179L198.613 165.768L199.11 165.663L199.41 167.073L199.937 166.961L200.037 167.431L199.51 167.543L199.709 168.48L199.212 168.586Z" fill="#10384F"/>
<rect width="21.2693" height="0.429193" transform="translate(206.89 164.179) rotate(-12)" fill="#DCDFE3"/>
<path d="M206.89 164.179C207.122 164.129 207.35 164.277 207.399 164.509C207.448 164.741 207.3 164.969 207.069 165.018L206.89 164.179Z" fill="#030D81"/>
<rect x="52.0189" y="213.13" width="150.933" height="23.4667" rx="11.7333" transform="rotate(-12 52.0189 213.13)" stroke="#A5A8B5" stroke-width="0.266667"/>
<g clip-path="url(#clip4_42_1012)">
<path d="M70.9213 223.607L73.2934 225.148" stroke="#A5A8B5" stroke-width="0.8" stroke-linecap="round" stroke-linejoin="round"/>
<path d="M71.4074 220.55C70.9481 218.389 68.8241 217.01 66.6632 217.469C64.5023 217.928 63.123 220.053 63.5823 222.213C64.0416 224.374 66.1656 225.754 68.3265 225.294C70.4874 224.835 71.8667 222.711 71.4074 220.55Z" stroke="#A5A8B5" stroke-width="0.8" stroke-linejoin="round"/>
</g>
<path d="M82.933 222.742C82.4196 222.851 81.9615 222.85 81.5585 222.739C81.1555 222.629 80.7752 222.425 80.4176 222.128L80.8909 221.399C81.1587 221.643 81.4431 221.812 81.7442 221.905C82.044 221.992 82.3911 221.993 82.7855 221.909C83.1736 221.827 83.4655 221.676 83.6612 221.458C83.8632 221.238 83.9329 220.982 83.8704 220.687C83.8185 220.443 83.7202 220.258 83.5756 220.132C83.431 220.005 83.2517 219.916 83.0376 219.863C82.8285 219.803 82.6033 219.759 82.362 219.732C82.1193 219.699 81.876 219.662 81.632 219.622C81.3867 219.576 81.1561 219.507 80.9404 219.416C80.7233 219.318 80.532 219.172 80.3665 218.978C80.2073 218.783 80.0924 218.52 80.0218 218.188C79.9433 217.819 79.9644 217.487 80.0852 217.193C80.2108 216.892 80.4124 216.639 80.6899 216.437C80.9723 216.226 81.3075 216.079 81.6957 215.997C82.1214 215.907 82.5212 215.91 82.8952 216.007C83.2678 216.098 83.5892 216.255 83.8592 216.479L83.386 217.208C83.144 217.024 82.8984 216.899 82.6491 216.835C82.406 216.769 82.1405 216.766 81.8525 216.827C81.502 216.902 81.24 217.039 81.0667 217.24C80.8921 217.434 80.834 217.669 80.8925 217.944C80.9391 218.163 81.0334 218.33 81.1753 218.443C81.3222 218.55 81.4996 218.63 81.7073 218.684C81.9151 218.738 82.1403 218.781 82.383 218.815C82.6306 218.841 82.877 218.877 83.1223 218.923C83.3677 218.969 83.5995 219.044 83.8179 219.148C84.0363 219.252 84.2265 219.408 84.3884 219.615C84.5553 219.815 84.6753 220.088 84.7485 220.432C84.8709 221.008 84.7664 221.501 84.4349 221.912C84.1097 222.321 83.6091 222.598 82.933 222.742ZM88.1807 221.626C87.7362 221.721 87.3143 221.706 86.9149 221.581C86.5142 221.45 86.1732 221.232 85.8921 220.925C85.611 220.618 85.4232 220.243 85.3288 219.798C85.2356 219.36 85.252 218.944 85.3778 218.551C85.5098 218.157 85.7267 217.823 86.0285 217.549C86.3351 217.268 86.7044 217.082 87.1364 216.99C87.5495 216.902 87.9326 216.919 88.2855 217.04C88.6447 217.16 88.9472 217.367 89.193 217.662C89.4451 217.955 89.6157 218.311 89.7048 218.731C89.7181 218.793 89.7297 218.863 89.7394 218.939C89.7477 219.01 89.7525 219.094 89.7537 219.191L85.9882 219.992L85.8385 219.288L89.1533 218.583L88.9013 218.921C88.8374 218.621 88.7303 218.378 88.58 218.194C88.4283 218.004 88.2435 217.873 88.0254 217.802C87.8061 217.724 87.5587 217.715 87.2833 217.773C86.9953 217.834 86.7551 217.951 86.5626 218.123C86.3701 218.295 86.2383 218.506 86.1673 218.756C86.0962 219.007 86.0933 219.286 86.1585 219.592C86.225 219.905 86.3462 220.168 86.522 220.379C86.6964 220.584 86.9134 220.728 87.173 220.81C87.4312 220.886 87.7106 220.892 88.0111 220.828C88.2615 220.775 88.4806 220.682 88.6686 220.551C88.8628 220.418 89.0164 220.248 89.1294 220.041L89.7918 220.479C89.6322 220.775 89.4098 221.021 89.1248 221.219C88.846 221.416 88.5313 221.552 88.1807 221.626ZM93.0461 220.592C92.6392 220.678 92.2485 220.657 91.8742 220.527C91.4985 220.391 91.1763 220.168 90.9078 219.859C90.6454 219.548 90.4677 219.174 90.3746 218.736C90.2814 218.297 90.2915 217.883 90.4048 217.493C90.5243 217.101 90.7249 216.767 91.0065 216.491C91.2944 216.214 91.6449 216.032 92.0581 215.944C92.3961 215.872 92.7119 215.88 93.0055 215.968C93.3039 216.049 93.5611 216.197 93.7771 216.413C93.9918 216.622 94.1431 216.888 94.2311 217.209L94.5165 218.552C94.5656 218.875 94.5354 219.179 94.4258 219.464C94.3225 219.748 94.1516 219.991 93.913 220.192C93.6794 220.385 93.3904 220.519 93.0461 220.592ZM93.0173 219.764C93.4367 219.675 93.7448 219.462 93.9416 219.126C94.1371 218.783 94.1876 218.39 94.0931 217.945C94.0279 217.638 93.9119 217.385 93.745 217.185C93.5831 216.977 93.3824 216.833 93.143 216.754C92.9022 216.667 92.6409 216.654 92.3592 216.714C92.0775 216.774 91.8411 216.893 91.6499 217.071C91.465 217.248 91.3346 217.465 91.2586 217.723C91.1876 217.974 91.1833 218.246 91.2459 218.541C91.3097 218.841 91.4257 219.094 91.5939 219.301C91.767 219.5 91.9771 219.641 92.2242 219.726C92.4712 219.811 92.7356 219.824 93.0173 219.764ZM94.5098 220.183L94.2543 218.981L94.1824 217.858L93.7932 216.812L93.5617 215.722L94.4162 215.541L95.3643 220.001L94.5098 220.183ZM96.5947 219.739L95.6466 215.279L96.4917 215.1L97.4398 219.56L96.5947 219.739ZM96.8989 217.015L96.5497 216.942C96.4286 216.372 96.4636 215.891 96.6547 215.497C96.8458 215.103 97.1886 214.853 97.6831 214.748C97.9085 214.7 98.1206 214.698 98.3194 214.74C98.517 214.777 98.7133 214.869 98.9083 215.018L98.4761 215.708C98.3609 215.628 98.2423 215.578 98.1203 215.558C97.9983 215.538 97.8622 215.544 97.7119 215.576C97.3989 215.643 97.1635 215.797 97.0058 216.04C96.8481 216.283 96.8124 216.608 96.8989 217.015ZM102.275 218.63C101.836 218.723 101.417 218.705 101.016 218.574C100.622 218.442 100.284 218.223 100.003 217.916C99.7266 217.602 99.5426 217.229 99.4508 216.797C99.3576 216.358 99.374 215.943 99.4998 215.55C99.6318 215.155 99.8519 214.82 100.16 214.546C100.473 214.263 100.848 214.075 101.287 213.982C101.631 213.909 101.964 213.907 102.286 213.976C102.607 214.038 102.9 214.169 103.165 214.368L102.721 215.051C102.549 214.918 102.354 214.832 102.136 214.793C101.923 214.746 101.698 214.749 101.46 214.799C101.178 214.859 100.942 214.978 100.751 215.156C100.558 215.328 100.424 215.54 100.346 215.792C100.269 216.044 100.262 216.317 100.324 216.611C100.387 216.905 100.504 217.152 100.678 217.35C100.851 217.549 101.061 217.691 101.308 217.776C101.555 217.861 101.819 217.873 102.101 217.813C102.339 217.763 102.546 217.676 102.723 217.554C102.905 217.423 103.05 217.262 103.16 217.068L103.833 217.514C103.677 217.796 103.463 218.034 103.19 218.23C102.924 218.424 102.619 218.557 102.275 218.63ZM107.966 217.322L107.413 214.721C107.342 214.383 107.176 214.127 106.916 213.953C106.657 213.78 106.358 213.729 106.02 213.8C105.795 213.848 105.605 213.941 105.451 214.078C105.297 214.216 105.189 214.383 105.126 214.579C105.063 214.776 105.055 214.987 105.103 215.212L104.714 215.089C104.642 214.751 104.653 214.434 104.748 214.14C104.842 213.845 105.008 213.594 105.245 213.386C105.481 213.172 105.768 213.03 106.106 212.958C106.444 212.886 106.758 212.898 107.046 212.994C107.341 213.088 107.592 213.254 107.8 213.491C108.007 213.728 108.148 214.022 108.223 214.373L108.811 217.143L107.966 217.322ZM104.811 217.993L103.386 211.288L104.231 211.109L105.656 217.813L104.811 217.993Z" fill="#A5A8B5"/>
<g clip-path="url(#clip5_42_1012)">
<path d="M224.675 187.879L219.459 188.988" stroke="#969696" stroke-linecap="round"/>
<path d="M225.164 185.05L217.339 186.713" stroke="#969696" stroke-linecap="round"/>
<path d="M220.795 191.43L223.404 190.875" stroke="#969696" stroke-linecap="round"/>
</g>
<rect x="58.6721" y="244.431" width="0.863143" height="494.001" transform="rotate(-12 58.6721 244.431)" fill="#E7E9F8"/>
<rect x="228.654" y="208.3" width="0.863143" height="493.572" transform="rotate(-12 228.654 208.3)" fill="#E7E9F8"/>
<rect x="225.277" y="209.018" width="4.31572" height="2.57516" transform="rotate(-12 225.277 209.018)" fill="#E7E9F8"/>
<rect x="94.0883" y="407.591" width="39.273" height="2.57516" transform="rotate(-12 94.0883 407.591)" fill="#E7E9F8"/>
<rect x="58.6721" y="244.431" width="44.308" height="2.57516" transform="rotate(-12 58.6721 244.431)" fill="#E7E9F8"/>
<rect x="213.602" y="368.584" width="151.505" height="0.863143" transform="rotate(-102 213.602 368.584)" fill="#E7E9F8"/>
<rect x="148.156" y="401.801" width="172.536" height="0.863143" transform="rotate(-102 148.156 401.801)" fill="#E7E9F8"/>
<rect x="165.011" y="315.729" width="91.8473" height="0.863143" transform="rotate(-102 165.011 315.729)" fill="#E7E9F8"/>
<rect x="102.012" y="235.219" width="130.335" height="2.57516" transform="rotate(-12 102.012 235.219)" fill="#E7E9F8"/>
</g>
</g>
<g filter="url(#filter1_d_42_1012)">
<rect x="343" y="0.792969" width="200" height="371.733" rx="12.8" transform="rotate(12 343 0.792969)" fill="white"/>
<rect x="344.643" y="3.32323" width="195.733" height="367.467" rx="10.6667" transform="rotate(12 344.643 3.32323)" stroke="#0410A2" stroke-opacity="0.1" stroke-width="4.26667"/>
<g clip-path="url(#clip6_42_1012)">
<path d="M344.757 15.6152C345.981 9.8529 351.646 6.17455 357.408 7.39937L522.78 42.5503C528.542 43.7751 532.221 49.4393 530.996 55.2016L511.036 149.104L324.797 109.517L344.757 15.6152Z" fill="#0410A2"/>
<path d="M355.026 23.4207C354.138 23.6394 353.394 23.8287 353.37 23.8437C353.347 23.8587 353.373 23.9081 353.433 23.9648C353.542 24.0598 353.541 24.0636 353.476 24.3693C353.426 24.6062 353.391 24.6908 353.337 24.7192C353.292 24.7416 353.265 24.7956 353.26 24.8745C353.255 24.9373 353.209 25.0754 353.159 25.1767C353.107 25.2733 353.063 25.3677 353.059 25.383C353.055 25.4021 353.164 25.4373 353.299 25.4659L353.546 25.5183L353.542 25.27C353.54 25.1297 353.55 24.9842 353.572 24.9408C353.592 24.9012 353.591 24.8292 353.57 24.7806C353.545 24.7274 353.551 24.601 353.587 24.4168L353.645 24.1417L353.955 24.3873C354.123 24.5229 354.269 24.6337 354.28 24.6361C354.288 24.6378 354.311 24.6067 354.331 24.5671C354.379 24.4735 354.96 24.3334 355.401 24.3071C355.673 24.2932 355.834 24.3115 356.381 24.4277C356.978 24.5507 357.065 24.5771 357.384 24.7447C357.576 24.8454 357.867 25.0271 358.038 25.1513C358.204 25.2784 358.363 25.384 358.389 25.3898C358.455 25.4037 359.328 25.194 359.369 25.1547C359.4 25.1214 356.779 23.0466 356.689 23.0354C356.662 23.0297 355.912 23.2058 355.026 23.4207Z" fill="#DCDFFE"/>
<path d="M355.508 24.6528C355.319 24.6525 355.034 24.6877 354.869 24.7246L354.572 24.7972L354.487 25.1027L354.402 25.4081L354.042 25.5871C353.15 26.0327 352.593 26.7448 352.392 27.6886C352.256 28.3305 352.316 28.9743 352.587 29.8026C352.686 30.1113 352.97 30.7627 353.027 30.8149C353.064 30.8506 353.606 30.8541 353.988 30.8194L354.344 30.7912L354.124 30.6526C353.768 30.4332 353.53 30.1909 353.235 29.7447C352.924 29.2753 352.82 28.9497 352.782 28.3706C352.756 27.9257 352.912 27.3078 353.158 26.885C353.596 26.1314 354.526 25.5623 355.383 25.5248C355.809 25.5075 356.504 25.6633 356.881 25.8592C357.746 26.3146 358.313 27.2059 358.364 28.1792C358.38 28.4622 358.27 29.0937 358.142 29.4499L358.067 29.6535L358.401 29.4251L358.735 29.1966L358.771 28.8928C358.853 28.2992 358.807 27.91 358.604 27.3716C358.466 27.0149 358.149 26.504 357.929 26.2857L357.77 26.1279L357.834 25.8261L357.898 25.5242L357.736 25.3979C357.526 25.2295 357.163 25.0246 356.885 24.9135C356.552 24.7787 355.898 24.6557 355.508 24.6528Z" fill="#DCDFFE"/>
<path d="M359.53 26.0836C359.981 26.4032 360.169 26.6548 360.262 27.0661C360.306 27.259 360.303 27.3502 360.241 27.6406C360.156 28.038 360.056 28.2282 359.699 28.6756C358.724 29.894 356.933 30.8432 354.971 31.1731C353.699 31.3858 352.243 31.308 351.515 30.9816C351.004 30.7571 350.603 30.3685 350.451 29.9487C350.432 29.9048 350.433 29.9408 350.446 30.0314C350.537 30.5661 350.919 31.0027 351.558 31.3102C351.77 31.4112 351.997 31.4794 352.577 31.6068L353.32 31.7685L353.528 32.248C353.641 32.5117 353.873 33.0482 354.038 33.4428L354.341 34.1581L354.596 33.9209C354.737 33.791 355.009 33.5333 355.204 33.3551C355.399 33.173 355.69 32.9034 355.847 32.753C356.007 32.6034 356.398 32.2392 356.715 31.9431C357.031 31.6508 357.285 31.4013 357.279 31.392C357.273 31.3827 357.109 31.4158 356.917 31.4668C356.469 31.5834 355.906 31.6793 355.714 31.6744C355.61 31.6722 355.723 31.6285 356.1 31.5248C357.534 31.1387 358.496 30.6443 359.372 29.8522C359.92 29.3576 360.29 28.8292 360.506 28.2481C360.688 27.7516 360.673 27.2533 360.452 26.7989C360.355 26.5906 360.025 26.2689 359.755 26.1196C359.439 25.9444 359.306 25.9243 359.53 26.0836Z" fill="#DCDFFE"/>
<path d="M359.071 26.3676C359.341 26.6127 359.575 26.9699 359.662 27.26C359.727 27.4854 359.728 27.5736 359.684 27.8757C359.64 28.1778 359.642 28.2062 359.692 28.0812C359.796 27.8397 359.851 27.5239 359.831 27.296C359.81 27.016 359.596 26.679 359.297 26.4596C358.987 26.2339 358.869 26.1809 359.071 26.3676Z" fill="#DCDFFE"/>
<path d="M354.615 26.5461C354.546 26.5674 354.519 26.6537 354.339 27.5019L354.14 28.4381L354.275 28.4667C354.602 28.5363 355.04 28.8051 355.161 29.0106C355.194 29.0654 355.233 29.1096 355.252 29.1137C355.267 29.117 355.372 28.7 355.482 28.1841C355.647 27.4046 355.674 27.2226 355.644 27.1164C355.602 26.9557 355.333 26.7466 355.046 26.6539C354.93 26.617 354.803 26.5701 354.762 26.5535C354.721 26.5368 354.653 26.5344 354.615 26.5461Z" fill="#DCDFFE"/>
<path d="M356.818 27.0103C356.445 26.9831 356.247 27.0087 356.084 27.1138L355.93 27.2129L355.72 28.1987L355.511 29.1846L355.64 29.1081C355.889 28.9575 356.327 28.9028 356.681 28.9781L356.835 29.0108L357.029 28.0976C357.195 27.3181 357.218 27.1713 357.175 27.1102C357.151 27.0692 357.106 27.0357 357.083 27.0307C357.055 27.0288 356.937 27.0196 356.818 27.0103Z" fill="#DCDFFE"/>
<path d="M354.025 26.7458C353.941 26.7998 353.528 28.7608 353.586 28.8329C353.605 28.8569 353.789 28.936 353.988 29.0023C354.556 29.1908 354.842 29.3955 355.038 29.7445C355.15 29.9522 355.284 29.9648 355.543 29.792C355.88 29.5681 356.208 29.5181 356.863 29.5975C357.079 29.6234 357.161 29.6168 357.199 29.5691C357.274 29.485 357.66 27.6501 357.631 27.5401C357.616 27.497 357.569 27.4511 357.531 27.4429C357.458 27.4274 357.447 27.4572 357.251 28.3818L357.048 29.3371L356.867 29.2986C356.381 29.1993 355.796 29.2788 355.477 29.4945L355.272 29.6266L355.161 29.4274C355.1 29.3185 354.978 29.1728 354.889 29.098C354.703 28.9506 354.245 28.7414 353.987 28.6865L353.814 28.6497L354.017 27.6944C354.207 26.8003 354.216 26.7384 354.15 26.7245C354.112 26.7163 354.058 26.7247 354.025 26.7458Z" fill="#DCDFFE"/>
<path d="M351.449 27.7323C351.131 28.0959 350.89 28.5441 350.797 28.9475C350.729 29.2485 350.729 29.3206 350.78 29.555C350.85 29.8533 350.984 30.0536 351.244 30.2487C351.46 30.4065 351.935 30.5753 352.232 30.5985L352.451 30.6129L352.199 30.4915C351.442 30.115 351.031 29.5484 351.061 28.9158C351.073 28.6148 351.229 28.2007 351.471 27.8208C351.579 27.6521 351.665 27.5145 351.657 27.5129C351.649 27.5113 351.555 27.6112 351.449 27.7323Z" fill="#DCDFFE"/>
<path d="M359.666 30.1949C359.473 30.3854 358.628 30.9488 358.065 31.2723C357.8 31.4197 357.775 31.4423 357.918 31.3967C358.611 31.1808 359.354 30.6957 359.757 30.2022C359.931 29.9877 359.883 29.9855 359.666 30.1949Z" fill="#DCDFFE"/>
<path d="M353.249 33.8607C353.074 33.8514 352.856 33.8569 352.764 33.8733L352.596 33.9055L352.669 33.997C352.799 34.1604 353.22 34.3217 354.02 34.5118C355.023 34.753 355.713 34.8198 355.952 34.6988L356.055 34.6489L355.953 34.5632C355.74 34.3902 354.913 34.1184 354.858 34.2066C354.844 34.2317 354.961 34.2885 355.19 34.3651C355.386 34.4306 355.581 34.5122 355.622 34.5487C355.694 34.608 355.697 34.6126 355.621 34.6484C355.488 34.7079 355.135 34.661 354.246 34.4719C353.435 34.2955 353.002 34.1555 352.965 34.06C352.94 33.9907 353.125 33.9702 353.492 34.0042C353.891 34.041 353.92 34.0353 353.85 33.9684C353.787 33.907 353.647 33.8814 353.249 33.8607Z" fill="#DCDFFE"/>
<path d="M365.207 34.5382C364.717 34.4339 364.302 34.2345 363.963 33.9399C363.631 33.6407 363.396 33.2787 363.257 32.8538C363.119 32.4289 363.101 31.977 363.203 31.498L364.015 27.6756L365.221 27.932L364.401 31.7899C364.342 32.0678 364.347 32.3192 364.417 32.5441C364.493 32.7703 364.619 32.9609 364.796 33.1159C364.98 33.2664 365.197 33.368 365.445 33.4207C365.699 33.4748 365.935 33.4693 366.153 33.4044C366.372 33.3335 366.559 33.2095 366.714 33.0323C366.875 32.8565 366.984 32.6325 367.042 32.3605L367.864 28.4937L369.079 28.752L368.265 32.5833C368.163 33.0622 367.963 33.4677 367.663 33.7996C367.365 34.1256 367.004 34.3577 366.579 34.496C366.161 34.6297 365.704 34.6438 365.207 34.5382ZM371.614 35.8074L372.137 33.3507C372.191 33.0964 372.155 32.8725 372.029 32.679C371.903 32.4854 371.713 32.3616 371.459 32.3076C371.294 32.2724 371.138 32.2764 370.993 32.3197C370.848 32.363 370.723 32.4415 370.619 32.5553C370.52 32.6703 370.453 32.8135 370.416 32.985L370.013 32.6582C370.084 32.3212 370.218 32.0436 370.412 31.8255C370.614 31.6026 370.857 31.4473 371.142 31.3594C371.432 31.2728 371.74 31.2641 372.065 31.3332C372.378 31.3998 372.642 31.5393 372.857 31.7518C373.072 31.9583 373.224 32.2037 373.312 32.4881C373.401 32.7666 373.415 33.0507 373.353 33.3404L372.776 36.0543L371.614 35.8074ZM368.732 35.1947L369.643 30.911L370.804 31.158L369.894 35.4416L368.732 35.1947ZM373.623 36.2344L374.534 31.9507L375.705 32.1996L374.794 36.4832L373.623 36.2344ZM375.266 31.3834C375.077 31.3432 374.934 31.2478 374.836 31.0972C374.739 30.9408 374.711 30.7679 374.751 30.5787C374.79 30.3954 374.886 30.2519 375.038 30.1483C375.189 30.0446 375.36 30.0128 375.549 30.0531C375.744 30.0945 375.887 30.1929 375.978 30.3481C376.074 30.5046 376.103 30.6744 376.064 30.8577C376.024 31.0469 375.928 31.1934 375.776 31.297C375.631 31.3961 375.461 31.4249 375.266 31.3834ZM375.859 36.7095L377.184 30.4747L378.027 30.6538L378.134 31.9373L377.065 36.9659L375.859 36.7095ZM380.169 37.6257L377.489 32.0504L378.027 30.6538L380.707 36.2291L380.169 37.6257ZM380.169 37.6257L380.072 36.3815L381.148 31.3174L382.363 31.5756L381.038 37.8104L380.169 37.6257ZM383.862 38.5034C383.472 38.4205 383.141 38.2482 382.869 37.9864C382.597 37.7247 382.409 37.4065 382.303 37.0318C382.197 36.6571 382.189 36.2598 382.278 35.84C382.368 35.4143 382.538 35.0518 382.787 34.7525C383.036 34.4532 383.338 34.2393 383.693 34.1107C384.048 33.9822 384.42 33.9595 384.811 34.0424C385.118 34.1078 385.38 34.2283 385.596 34.404C385.812 34.5797 385.967 34.7949 386.061 35.0498C386.162 35.2999 386.189 35.5652 386.142 35.8456L385.814 37.3888C385.742 37.6701 385.609 37.9044 385.415 38.0918C385.226 38.2804 384.997 38.414 384.727 38.4925C384.458 38.5651 384.17 38.5688 383.862 38.5034ZM384.303 37.4755C384.629 37.5447 384.914 37.4942 385.161 37.324C385.408 37.148 385.568 36.8885 385.641 36.5456C385.689 36.3209 385.684 36.1128 385.626 35.9212C385.575 35.725 385.476 35.562 385.331 35.4322C385.193 35.2978 385.014 35.2073 384.795 35.1608C384.583 35.1155 384.383 35.1256 384.196 35.1909C384.016 35.2516 383.86 35.3605 383.728 35.5178C383.603 35.6704 383.516 35.8591 383.468 36.0837C383.419 36.3143 383.42 36.5277 383.471 36.724C383.529 36.9155 383.628 37.0786 383.766 37.213C383.911 37.3428 384.091 37.4303 384.303 37.4755ZM385.123 38.6787L385.368 37.5257L385.777 36.5188L385.809 35.4504L386.033 34.395L387.186 34.6401L386.276 38.9237L385.123 38.6787ZM388.607 39.4193L387.629 34.7341L388.906 35.0056L389.513 38.8238L388.883 38.69L390.999 35.4505L392.232 35.7125L389.441 39.5965L388.607 39.4193Z" fill="#DCDFFE"/>
<rect x="472.268" y="41.6289" width="23.4667" height="23.4667" rx="11.7333" transform="rotate(12 472.268 41.6289)" fill="white"/>
<g clip-path="url(#clip7_42_1012)">
<path d="M476.933 55.8744C476.711 56.4608 477.035 56.9693 477.497 57.2865C479.266 58.5026 481.966 59.0765 484.077 58.6851C484.628 58.5831 485.13 58.2503 485.167 57.6246C485.189 57.2401 484.974 56.8703 484.83 56.5232C484.643 56.0637 484.709 55.62 484.808 55.154C485.191 53.3533 484.036 51.5822 482.23 51.1982C480.423 50.8141 478.648 51.9626 478.265 53.7633C478.166 54.2293 478.046 54.6615 477.688 55.0051C477.416 55.2637 477.069 55.5141 476.933 55.8744Z" stroke="black" stroke-width="0.8" stroke-linecap="round" stroke-linejoin="round"/>
<path d="M478.92 58.2188C478.96 59.0111 479.545 59.7147 480.382 59.8926C481.218 60.0704 482.039 59.6656 482.398 58.958" stroke="black" stroke-width="0.8" stroke-linecap="round" stroke-linejoin="round"/>
</g>
<circle cx="489.562" cy="47.4831" r="2.66667" transform="rotate(12 489.562 47.4831)" fill="#16B364" stroke="#EDFCF2" stroke-width="0.533333"/>
<rect x="502.406" y="49.2617" width="21.0667" height="21.0667" rx="4.13333" transform="rotate(12 502.406 49.2617)" stroke="#DCDFE3" stroke-width="0.266667"/>
<g clip-path="url(#clip8_42_1012)">
<path d="M507.122 57.2158L515.469 58.99" stroke="white" stroke-width="0.8" stroke-linecap="round" stroke-linejoin="round"/>
<path d="M506.346 60.8682L514.693 62.6423" stroke="white" stroke-width="0.8" stroke-linecap="round" stroke-linejoin="round"/>
<path d="M505.57 64.5195L513.917 66.2937" stroke="white" stroke-width="0.8" stroke-linecap="round" stroke-linejoin="round"/>
</g>
<path d="M346.312 64.3627L345.349 54.9193L347.302 55.3344L347.935 62.5747L347.172 62.4124L350.645 56.045L352.185 56.3723L352.768 63.602L352.017 63.4423L355.528 57.0829L357.469 57.4954L352.748 65.7306L351.208 65.4033L350.612 58.171L351.338 58.3253L347.852 64.69L346.312 64.3627ZM358.671 67.1336C358.012 66.9935 357.452 66.7348 356.991 66.3577C356.54 65.9741 356.22 65.5091 356.031 64.9629C355.842 64.4167 355.812 63.8389 355.942 63.2296C356.071 62.6203 356.328 62.1079 356.713 61.6925C357.108 61.2704 357.581 60.974 358.132 60.8033C358.683 60.6325 359.268 60.6128 359.885 60.7441C360.486 60.8718 360.989 61.1138 361.393 61.4702C361.797 61.8265 362.08 62.2617 362.241 62.7758C362.41 63.2916 362.432 63.8459 362.306 64.4385C362.283 64.547 362.25 64.6621 362.207 64.7837C362.173 64.8988 362.123 65.0321 362.056 65.1836L356.808 64.081L357.087 62.7664L361.522 63.696L360.578 64.0712C360.645 63.7189 360.651 63.4194 360.599 63.1727C360.549 62.9177 360.436 62.7105 360.26 62.5511C360.095 62.3851 359.87 62.2719 359.587 62.2116C359.286 62.1477 359.008 62.1628 358.753 62.2568C358.507 62.3442 358.295 62.4998 358.117 62.7236C357.947 62.9492 357.823 63.2414 357.747 63.6003C357.671 63.9592 357.668 64.2814 357.738 64.5667C357.818 64.8455 357.96 65.0807 358.164 65.2723C358.378 65.4573 358.647 65.5844 358.973 65.6536C359.273 65.7174 359.555 65.725 359.818 65.6763C360.084 65.6193 360.33 65.5059 360.558 65.3363L361.386 66.6115C361.011 66.8982 360.592 67.084 360.129 67.1688C359.666 67.2536 359.18 67.2419 358.671 67.1336ZM362.555 67.8152L364.487 58.7255L366.403 59.1326L364.47 68.2224L362.555 67.8152ZM368.732 69.2722C368.106 69.1391 367.568 68.8808 367.117 68.4971C366.667 68.1134 366.347 67.6485 366.158 67.1023C365.968 66.5561 365.938 65.9825 366.065 65.3815C366.195 64.7722 366.456 64.2607 366.85 63.847C367.253 63.4268 367.739 63.133 368.306 62.9658C368.874 62.7986 369.475 62.7824 370.109 62.9172C370.585 63.0184 371.001 63.1941 371.358 63.4444C371.725 63.6882 372.028 64.0056 372.268 64.3968L370.78 65.363C370.672 65.1742 370.53 65.0219 370.354 64.906C370.186 64.7918 369.982 64.709 369.739 64.6575C369.464 64.599 369.204 64.6093 368.961 64.6883C368.727 64.7608 368.525 64.8923 368.354 65.0827C368.192 65.2665 368.082 65.5003 368.021 65.7841C367.961 66.0679 367.966 66.3308 368.037 66.5726C368.116 66.8162 368.251 67.0237 368.441 67.1951C368.632 67.3664 368.86 67.4804 369.127 67.5372C369.378 67.5904 369.608 67.5957 369.818 67.5531C370.037 67.5038 370.235 67.415 370.411 67.2866L371.364 68.7717C370.976 69.0381 370.563 69.2164 370.125 69.3066C369.689 69.3883 369.225 69.3769 368.732 69.2722ZM374.784 70.5586C374.158 70.4255 373.62 70.1672 373.169 69.7835C372.729 69.3933 372.414 68.925 372.225 68.3788C372.036 67.8326 372.005 67.259 372.133 66.658C372.26 66.0571 372.521 65.5497 372.914 65.1361C373.307 64.7224 373.784 64.431 374.343 64.2621C374.904 64.0847 375.502 64.0635 376.136 64.1983C376.771 64.3331 377.309 64.5915 377.751 64.9734C378.194 65.3553 378.509 65.8194 378.699 66.3656C378.89 66.9034 378.921 67.4729 378.793 68.0738C378.666 68.6748 378.404 69.1863 378.009 69.6083C377.614 70.0303 377.136 70.33 376.575 70.5074C376.016 70.6764 375.419 70.6934 374.784 70.5586ZM375.154 68.8183C375.43 68.8768 375.684 68.8699 375.918 68.7974C376.153 68.7165 376.348 68.5791 376.503 68.3851C376.667 68.1846 376.78 67.9425 376.84 67.6587C376.901 67.3749 376.894 67.1162 376.822 66.8827C376.751 66.6409 376.624 66.4393 376.44 66.2781C376.266 66.1103 376.042 65.9972 375.766 65.9386C375.499 65.8818 375.248 65.8939 375.013 65.9747C374.779 66.0472 374.581 66.1796 374.418 66.3718C374.255 66.5639 374.143 66.8019 374.083 67.0857C374.025 67.3612 374.03 67.624 374.099 67.8742C374.169 68.116 374.296 68.3217 374.478 68.4913C374.662 68.6525 374.887 68.7615 375.154 68.8183ZM379.098 71.3315L380.391 65.2466L382.307 65.6538L381.013 71.7387L379.098 71.3315ZM382.992 72.1591L383.747 68.6034C383.813 68.2946 383.768 68.0363 383.611 67.8285C383.465 67.6142 383.254 67.4778 382.978 67.4192C382.786 67.3784 382.606 67.3838 382.438 67.4353C382.272 67.4785 382.128 67.5613 382.006 67.6837C381.893 67.8078 381.814 67.9742 381.769 68.1829L381.1 67.7004C381.203 67.2162 381.395 66.8253 381.676 66.5274C381.959 66.2212 382.3 66.0144 382.698 65.9071C383.098 65.7914 383.523 65.7814 383.974 65.8772C384.399 65.9677 384.759 66.1444 385.052 66.4074C385.353 66.6721 385.568 66.9969 385.695 67.3817C385.823 67.7665 385.836 68.1967 385.735 68.6725L384.907 72.5663L382.992 72.1591ZM386.885 72.9868L387.641 69.431C387.707 69.1222 387.661 68.8639 387.505 68.6562C387.359 68.4419 387.148 68.3054 386.872 68.2469C386.68 68.2061 386.5 68.2114 386.332 68.263C386.166 68.3062 386.022 68.3889 385.9 68.5113C385.786 68.6355 385.707 68.8019 385.663 69.0106L384.593 68.6261C384.72 68.1122 384.935 67.6955 385.238 67.3761C385.552 67.0502 385.918 66.827 386.336 66.7065C386.764 66.5795 387.216 66.5665 387.692 66.6676C388.159 66.767 388.551 66.955 388.868 67.2316C389.194 67.5016 389.423 67.8424 389.553 68.2541C389.694 68.6591 389.71 69.1162 389.602 69.6254L388.801 73.394L386.885 72.9868ZM393.004 74.4313C392.345 74.2912 391.785 74.0325 391.324 73.6554C390.873 73.2718 390.553 72.8068 390.364 72.2606C390.175 71.7144 390.145 71.1366 390.275 70.5273C390.404 69.918 390.661 69.4056 391.046 68.9902C391.441 68.5681 391.914 68.2717 392.465 68.101C393.016 67.9302 393.601 67.9105 394.218 68.0418C394.819 68.1695 395.322 68.4115 395.726 68.7679C396.13 69.1242 396.413 69.5594 396.574 70.0735C396.743 70.5893 396.765 71.1436 396.639 71.7362C396.616 71.8447 396.583 71.9598 396.54 72.0814C396.506 72.1965 396.456 72.3298 396.389 72.4813L391.14 71.3788L391.42 70.0641L395.855 70.9937L394.911 71.3689C394.978 71.0166 394.984 70.7171 394.932 70.4704C394.882 70.2154 394.769 70.0082 394.593 69.8488C394.428 69.6828 394.203 69.5696 393.92 69.5093C393.619 69.4454 393.341 69.4605 393.085 69.5545C392.84 69.6419 392.628 69.7975 392.45 70.0213C392.28 70.2469 392.156 70.5391 392.08 70.898C392.004 71.2569 392.001 71.5791 392.071 71.8644C392.151 72.1432 392.293 72.3784 392.497 72.57C392.711 72.755 392.98 72.8821 393.306 72.9513C393.606 73.0151 393.888 73.0227 394.151 72.974C394.417 72.917 394.663 72.8036 394.891 72.634L395.719 73.9092C395.344 74.1959 394.925 74.3817 394.462 74.4665C393.999 74.5513 393.513 74.5396 393.004 74.4313ZM396.568 76.6153L397.844 75.1068L398.442 75.0638C398.357 75.1766 398.264 75.2659 398.163 75.3316C398.064 75.389 397.96 75.4061 397.851 75.3831C397.609 75.3316 397.409 75.1844 397.251 74.9415C397.094 74.6986 397.047 74.4269 397.111 74.1264C397.18 73.8009 397.348 73.5444 397.614 73.3568C397.889 73.171 398.19 73.1127 398.515 73.1819C398.824 73.2475 399.066 73.4211 399.242 73.7027C399.428 73.9778 399.485 74.2822 399.414 74.6161C399.386 74.7497 399.328 74.8988 399.241 75.0634C399.153 75.228 399.004 75.4363 398.794 75.6881L397.386 77.3256L396.568 76.6153Z" fill="white"/>
<rect width="42.6668" height="16.0872" transform="translate(340.508 76.6494) rotate(12)" fill="#DCDFFE"/>
<rect width="42.6668" height="16.0872" transform="translate(390.638 87.3047) rotate(12)" fill="#DCDFFE"/>
<rect width="42.6668" height="16.0872" transform="translate(440.769 97.9609) rotate(12)" fill="#DCDFFE"/>
<rect width="42.6668" height="16.0872" transform="translate(490.9 108.616) rotate(12)" fill="#DCDFFE"/>
</g>
<g clip-path="url(#clip9_42_1012)">
<rect width="56" height="12.2667" transform="translate(326.231 120.728) rotate(12)" fill="#1D1E31"/>
<rect width="206.871" height="10.6667" transform="translate(323.324 134.405) rotate(12)" fill="#AFAFB6"/>
<rect x="319.318" y="153.25" width="13.7342" height="13.7342" rx="6.86709" transform="rotate(12 319.318 153.25)" fill="#030D81"/>
<path d="M323.934 163.807L324.845 159.522L323.818 159.876L323.936 159.322L324.962 158.971L325.462 159.078L324.434 163.914L323.934 163.807Z" fill="white"/>
<rect width="21.2693" height="0.429193" transform="translate(333.048 162.97) rotate(12)" fill="#DCDFE3"/>
<path d="M333.048 162.97C333.28 163.019 333.428 163.247 333.379 163.479C333.33 163.711 333.102 163.859 332.87 163.809L333.048 162.97Z" fill="#030D81"/>
<rect x="367.321" y="163.892" width="12.8758" height="12.8758" rx="6.4379" transform="rotate(12 367.321 163.892)" stroke="#030D81" stroke-width="0.858386"/>
<path d="M370.141 173.626L370.24 173.176L372.846 171.666C373.07 171.536 373.229 171.401 373.321 171.262C373.417 171.121 373.482 170.966 373.518 170.798C373.561 170.599 373.552 170.409 373.492 170.228C373.432 170.046 373.333 169.892 373.194 169.764C373.055 169.634 372.888 169.548 372.691 169.506C372.485 169.462 372.291 169.472 372.108 169.537C371.926 169.601 371.771 169.704 371.643 169.845C371.517 169.987 371.435 170.153 371.396 170.344L370.893 170.237C370.955 169.943 371.08 169.695 371.268 169.492C371.457 169.288 371.684 169.146 371.949 169.064C372.215 168.98 372.498 168.97 372.798 169.034C373.091 169.096 373.34 169.222 373.543 169.41C373.749 169.596 373.894 169.822 373.979 170.085C374.066 170.347 374.079 170.621 374.018 170.908C373.975 171.109 373.913 171.282 373.83 171.426C373.751 171.568 373.646 171.695 373.515 171.805C373.386 171.913 373.229 172.02 373.043 172.126L370.729 173.466L370.695 173.248L373.398 173.823L373.298 174.297L370.141 173.626Z" fill="#10384F"/>
<rect width="21.2693" height="0.429193" transform="translate(380.721 173.103) rotate(12)" fill="#DCDFE3"/>
<path d="M380.721 173.103C380.953 173.152 381.101 173.38 381.052 173.612C381.002 173.843 380.774 173.991 380.543 173.942L380.721 173.103Z" fill="#030D81"/>
<rect x="414.994" y="174.026" width="12.8758" height="12.8758" rx="6.4379" transform="rotate(12 414.994 174.026)" stroke="#030D81" stroke-width="0.858386"/>
<path d="M419.226 184.165C418.986 184.114 418.775 184.025 418.591 183.897C418.408 183.769 418.26 183.611 418.148 183.423C418.036 183.233 417.97 183.022 417.95 182.788L418.45 182.747C418.479 183.004 418.573 183.213 418.73 183.375C418.89 183.538 419.087 183.642 419.321 183.687C419.537 183.728 419.731 183.719 419.905 183.66C420.082 183.602 420.229 183.499 420.346 183.354C420.464 183.208 420.545 183.027 420.591 182.812C420.661 182.483 420.621 182.199 420.471 181.958C420.323 181.716 420.093 181.562 419.779 181.495C419.692 181.477 419.598 181.47 419.496 181.474C419.395 181.476 419.299 181.489 419.207 181.514L419.042 181.068L421.292 179.732L421.329 179.95L418.864 179.426L418.965 178.953L421.759 179.547L421.657 180.027L419.685 181.244L419.72 181.048C420.065 181.076 420.352 181.177 420.582 181.35C420.812 181.523 420.973 181.747 421.065 182.021C421.159 182.294 421.171 182.594 421.102 182.921C421.036 183.23 420.911 183.489 420.726 183.698C420.544 183.905 420.322 184.05 420.061 184.135C419.8 184.218 419.522 184.228 419.226 184.165Z" fill="#10384F"/>
<rect width="21.2693" height="0.429193" transform="translate(428.394 183.236) rotate(12)" fill="#DCDFE3"/>
<path d="M428.394 183.236C428.626 183.286 428.774 183.514 428.724 183.745C428.675 183.977 428.447 184.125 428.215 184.076L428.394 183.236Z" fill="#030D81"/>
<rect x="462.667" y="184.158" width="12.8758" height="12.8758" rx="6.4379" transform="rotate(12 462.667 184.158)" stroke="#030D81" stroke-width="0.858386"/>
<path d="M467.26 194.272L467.459 193.335L465.195 192.854L465.295 192.384L467.643 189.299L468.197 189.417L465.849 192.502L467.559 192.865L467.859 191.454L468.356 191.56L468.056 192.971L468.583 193.083L468.483 193.553L467.956 193.441L467.757 194.378L467.26 194.272Z" fill="#10384F"/>
<rect width="21.2693" height="0.429193" transform="translate(476.066 193.369) rotate(12)" fill="#DCDFE3"/>
<path d="M476.066 193.369C476.298 193.418 476.446 193.646 476.397 193.878C476.348 194.11 476.12 194.258 475.888 194.209L476.066 193.369Z" fill="#030D81"/>
<rect x="314.675" y="175.097" width="150.933" height="23.4667" rx="11.7333" transform="rotate(12 314.675 175.097)" stroke="#A5A8B5" stroke-width="0.266667"/>
<g clip-path="url(#clip10_42_1012)">
<path d="M327.682 192.355L329.222 194.728" stroke="#A5A8B5" stroke-width="0.8" stroke-linecap="round" stroke-linejoin="round"/>
<path d="M329.369 189.761C329.829 187.601 328.449 185.476 326.288 185.017C324.127 184.558 322.003 185.937 321.544 188.098C321.085 190.259 322.464 192.383 324.625 192.842C326.786 193.302 328.91 191.922 329.369 189.761Z" stroke="#A5A8B5" stroke-width="0.8" stroke-linejoin="round"/>
</g>
<path d="M339.007 196.452C338.493 196.342 338.075 196.155 337.752 195.89C337.429 195.625 337.164 195.285 336.958 194.868L337.687 194.395C337.832 194.727 338.024 194.996 338.261 195.204C338.499 195.405 338.816 195.547 339.21 195.631C339.598 195.714 339.926 195.695 340.194 195.575C340.468 195.457 340.636 195.251 340.698 194.956C340.75 194.712 340.736 194.503 340.655 194.329C340.574 194.155 340.447 194 340.273 193.865C340.106 193.725 339.918 193.593 339.709 193.47C339.501 193.341 339.294 193.208 339.087 193.073C338.881 192.931 338.699 192.774 338.539 192.603C338.38 192.425 338.265 192.214 338.193 191.97C338.126 191.727 338.129 191.44 338.199 191.108C338.278 190.738 338.432 190.444 338.662 190.225C338.899 190 339.186 189.852 339.522 189.779C339.865 189.702 340.231 189.704 340.619 189.787C341.045 189.877 341.409 190.043 341.711 190.284C342.015 190.519 342.244 190.793 342.4 191.108L341.671 191.581C341.525 191.314 341.351 191.101 341.15 190.94C340.955 190.781 340.713 190.67 340.425 190.609C340.074 190.535 339.779 190.554 339.539 190.666C339.301 190.773 339.152 190.964 339.094 191.239C339.047 191.458 339.066 191.649 339.149 191.81C339.24 191.967 339.369 192.112 339.537 192.246C339.705 192.38 339.893 192.511 340.101 192.641C340.317 192.765 340.527 192.898 340.733 193.04C340.938 193.182 341.12 193.345 341.277 193.529C341.434 193.712 341.544 193.932 341.608 194.188C341.679 194.438 341.678 194.736 341.604 195.08C341.482 195.656 341.186 196.064 340.716 196.305C340.252 196.546 339.683 196.595 339.007 196.452ZM344.254 197.567C343.81 197.473 343.43 197.287 343.116 197.011C342.803 196.729 342.581 196.39 342.449 195.996C342.317 195.601 342.298 195.182 342.392 194.737C342.485 194.299 342.669 193.926 342.944 193.618C343.225 193.311 343.559 193.094 343.946 192.967C344.341 192.835 344.754 192.815 345.186 192.907C345.599 192.995 345.942 193.166 346.215 193.42C346.495 193.676 346.687 193.988 346.791 194.357C346.903 194.728 346.913 195.123 346.824 195.542C346.811 195.605 346.793 195.673 346.771 195.747C346.75 195.814 346.72 195.893 346.682 195.983L342.916 195.182L343.066 194.478L346.381 195.183L346.013 195.389C346.077 195.089 346.077 194.824 346.015 194.595C345.954 194.359 345.838 194.164 345.668 194.01C345.499 193.85 345.277 193.741 345.001 193.682C344.714 193.621 344.447 193.63 344.201 193.708C343.955 193.787 343.749 193.926 343.582 194.127C343.415 194.327 343.299 194.58 343.234 194.887C343.168 195.2 343.172 195.489 343.246 195.753C343.322 196.011 343.462 196.231 343.666 196.411C343.871 196.586 344.123 196.705 344.424 196.769C344.674 196.822 344.912 196.827 345.137 196.783C345.369 196.741 345.578 196.648 345.766 196.504L346.193 197.174C345.927 197.379 345.623 197.514 345.282 197.579C344.947 197.646 344.605 197.642 344.254 197.567ZM349.12 198.601C348.713 198.515 348.365 198.336 348.075 198.065C347.788 197.788 347.584 197.454 347.464 197.062C347.351 196.671 347.341 196.257 347.434 195.819C347.527 195.381 347.705 195.006 347.967 194.695C348.236 194.386 348.555 194.163 348.924 194.025C349.3 193.889 349.694 193.865 350.108 193.953C350.446 194.025 350.731 194.161 350.963 194.361C351.203 194.556 351.378 194.796 351.487 195.081C351.598 195.359 351.628 195.663 351.578 195.993L351.293 197.336C351.206 197.651 351.055 197.917 350.839 198.132C350.629 198.35 350.374 198.501 350.074 198.588C349.782 198.67 349.464 198.674 349.12 198.601ZM349.43 197.833C349.85 197.922 350.218 197.853 350.534 197.626C350.852 197.393 351.058 197.054 351.153 196.609C351.218 196.302 351.215 196.024 351.144 195.773C351.08 195.518 350.956 195.304 350.769 195.134C350.584 194.957 350.351 194.839 350.069 194.779C349.788 194.719 349.523 194.732 349.276 194.817C349.036 194.903 348.828 195.049 348.654 195.254C348.487 195.454 348.372 195.701 348.309 195.995C348.246 196.295 348.248 196.574 348.318 196.831C348.395 197.083 348.53 197.298 348.721 197.476C348.912 197.654 349.148 197.773 349.43 197.833ZM350.623 198.823L350.879 197.621L351.27 196.565L351.34 195.452L351.571 194.362L352.426 194.544L351.478 199.004L350.623 198.823ZM352.708 199.266L353.656 194.805L354.501 194.985L353.553 199.445L352.708 199.266ZM354.094 196.901L353.805 196.692C353.926 196.122 354.154 195.696 354.489 195.414C354.823 195.132 355.238 195.044 355.733 195.149C355.958 195.197 356.153 195.281 356.317 195.401C356.483 195.514 356.624 195.678 356.742 195.893L356.067 196.348C355.994 196.228 355.906 196.134 355.803 196.066C355.699 195.999 355.572 195.949 355.422 195.917C355.109 195.85 354.831 195.896 354.588 196.054C354.345 196.211 354.181 196.494 354.094 196.901ZM358.348 200.563C357.91 200.47 357.534 200.282 357.221 199.999C356.915 199.718 356.695 199.381 356.563 198.986C356.439 198.587 356.423 198.171 356.514 197.739C356.607 197.301 356.791 196.928 357.066 196.62C357.347 196.313 357.685 196.097 358.078 195.971C358.478 195.84 358.898 195.821 359.336 195.915C359.68 195.988 359.986 196.121 360.252 196.315C360.52 196.503 360.734 196.742 360.895 197.031L360.212 197.475C360.109 197.283 359.965 197.125 359.782 197.001C359.607 196.872 359.4 196.782 359.162 196.732C358.881 196.672 358.616 196.684 358.369 196.769C358.124 196.848 357.914 196.986 357.741 197.185C357.568 197.384 357.45 197.63 357.388 197.925C357.325 198.219 357.332 198.492 357.41 198.744C357.487 198.996 357.621 199.211 357.812 199.389C358.004 199.567 358.24 199.686 358.522 199.746C358.76 199.796 358.984 199.802 359.196 199.761C359.415 199.716 359.613 199.628 359.792 199.496L360.226 200.177C359.969 200.371 359.676 200.502 359.348 200.569C359.026 200.638 358.692 200.636 358.348 200.563ZM364.08 201.683L364.633 199.082C364.704 198.744 364.657 198.443 364.491 198.178C364.325 197.914 364.073 197.746 363.735 197.674C363.509 197.626 363.298 197.634 363.102 197.696C362.905 197.759 362.738 197.868 362.601 198.022C362.463 198.176 362.371 198.365 362.323 198.591L362.017 198.32C362.089 197.982 362.228 197.697 362.434 197.466C362.64 197.235 362.894 197.073 363.195 196.98C363.497 196.881 363.818 196.867 364.156 196.939C364.494 197.011 364.775 197.149 365 197.354C365.231 197.56 365.393 197.814 365.486 198.115C365.579 198.416 365.588 198.742 365.514 199.092L364.925 201.863L364.08 201.683ZM360.925 201.012L362.35 194.308L363.195 194.487L361.77 201.192L360.925 201.012Z" fill="#A5A8B5"/>
<path d="M482.675 222.254L477.458 221.146" stroke="#969696" stroke-linecap="round"/>
<path d="M484.272 219.868L476.447 218.205" stroke="#969696" stroke-linecap="round"/>
<path d="M477.686 223.92L480.294 224.474" stroke="#969696" stroke-linecap="round"/>
<rect x="308.021" y="206.398" width="0.863143" height="494.001" transform="rotate(12 308.021 206.398)" fill="#E7E9F8"/>
<rect x="478.003" y="242.528" width="0.863143" height="493.572" transform="rotate(12 478.003 242.528)" fill="#E7E9F8"/>
<rect x="474.626" y="241.811" width="4.31572" height="2.57516" transform="rotate(12 474.626 241.811)" fill="#E7E9F8"/>
<rect x="274.012" y="369.857" width="39.273" height="2.57516" transform="rotate(12 274.012 369.857)" fill="#E7E9F8"/>
<rect x="308.021" y="206.398" width="44.308" height="2.57516" transform="rotate(12 308.021 206.398)" fill="#E7E9F8"/>
<rect x="399.059" y="382.833" width="151.505" height="0.863143" transform="rotate(-78 399.059 382.833)" fill="#E7E9F8"/>
<rect x="325.761" y="386.559" width="172.536" height="0.863143" transform="rotate(-78 325.761 386.559)" fill="#E7E9F8"/>
<rect x="376.168" y="314.783" width="91.8473" height="0.863143" transform="rotate(-78 376.168 314.783)" fill="#E7E9F8"/>
<rect x="351.361" y="215.61" width="130.335" height="2.57516" transform="rotate(12 351.361 215.61)" fill="#E7E9F8"/>
</g>
</g>
<g filter="url(#filter2_d_42_1012)">
<rect x="173" y="17.5225" width="200" height="371.733" rx="12.8" fill="white"/>
<rect x="175.133" y="19.6558" width="195.733" height="367.467" rx="10.6667" stroke="#0410A2" stroke-opacity="0.1" stroke-width="4.26667"/>
<g clip-path="url(#clip11_42_1012)">
<path d="M177.8 31.6559C177.8 25.7649 182.576 20.9893 188.467 20.9893H357.533C363.424 20.9893 368.2 25.7649 368.2 31.6559V127.656H177.8V31.6559Z" fill="#0410A2"/>
<path d="M189.468 37.1562C188.645 37.5546 187.956 37.8945 187.936 37.914C187.917 37.9335 187.952 37.9765 188.023 38.0195C188.149 38.0898 188.149 38.0937 188.149 38.4062C188.149 38.6484 188.133 38.7383 188.086 38.7773C188.047 38.8086 188.031 38.8672 188.043 38.9453C188.051 39.0078 188.035 39.1523 188.007 39.2617C187.976 39.3672 187.952 39.4687 187.952 39.4844C187.952 39.5039 188.066 39.5156 188.204 39.5156H188.456L188.401 39.2734C188.369 39.1367 188.35 38.9922 188.362 38.9453C188.373 38.9023 188.358 38.832 188.326 38.789C188.291 38.7422 188.271 38.6172 188.267 38.4296V38.1484L188.621 38.3242C188.814 38.4218 188.979 38.5 188.991 38.5C188.999 38.5 189.015 38.4648 189.027 38.4218C189.054 38.3203 189.593 38.0624 190.019 37.9453C190.282 37.8749 190.444 37.8593 191.003 37.8593C191.613 37.8554 191.703 37.8632 192.05 37.9609C192.258 38.0195 192.581 38.1367 192.774 38.2226C192.963 38.3125 193.14 38.3828 193.167 38.3828C193.234 38.3828 194.045 37.996 194.077 37.9492C194.1 37.9101 191.105 36.4257 191.014 36.4335C190.987 36.4335 190.29 36.7616 189.468 37.1562Z" fill="#DCDFFE"/>
<path d="M190.196 38.2611C190.011 38.3002 189.739 38.394 189.586 38.4643L189.31 38.5971L189.29 38.9135L189.271 39.2299L188.956 39.4799C188.176 40.101 187.779 40.9136 187.779 41.8785C187.779 42.5347 187.972 43.1519 188.409 43.9059C188.57 44.1871 188.983 44.7653 189.05 44.8043C189.094 44.8317 189.625 44.7223 189.991 44.609L190.333 44.5075L190.089 44.4176C189.696 44.277 189.412 44.0895 189.031 43.7145C188.629 43.3199 188.46 43.023 188.302 42.4644C188.184 42.0347 188.208 41.398 188.361 40.9331C188.633 40.105 189.424 39.3549 190.255 39.1401C190.668 39.0346 191.38 39.0424 191.79 39.1557C192.73 39.4213 193.47 40.1753 193.722 41.1167C193.797 41.3902 193.821 42.0308 193.769 42.4058L193.738 42.6207L194.017 42.3277L194.297 42.0347L194.269 41.73C194.226 41.1323 194.1 40.7612 193.789 40.2768C193.581 39.9565 193.163 39.5229 192.904 39.3549L192.715 39.2338V38.9252V38.6166L192.53 38.5268C192.29 38.4057 191.892 38.2807 191.597 38.2299C191.243 38.1674 190.577 38.183 190.196 38.2611Z" fill="#DCDFFE"/>
<path d="M194.427 38.8239C194.935 39.0426 195.171 39.2497 195.348 39.6325C195.431 39.8122 195.446 39.902 195.446 40.1989C195.446 40.6052 195.387 40.8122 195.131 41.324C194.431 42.7186 192.876 44.0194 191.026 44.7499C189.826 45.2226 188.385 45.4491 187.606 45.2812C187.059 45.1679 186.586 44.871 186.35 44.4921C186.323 44.453 186.331 44.4882 186.362 44.5741C186.563 45.078 187.027 45.4257 187.716 45.5937C187.944 45.6484 188.181 45.6679 188.775 45.6718L189.535 45.6757L189.838 46.1015C190.003 46.3359 190.341 46.8125 190.585 47.164L191.03 47.8008L191.231 47.5156C191.341 47.3594 191.554 47.0508 191.707 46.8359C191.861 46.6171 192.089 46.2929 192.211 46.1132C192.337 45.9335 192.644 45.496 192.892 45.1405C193.14 44.7889 193.337 44.4921 193.329 44.4843C193.321 44.4764 193.167 44.5428 192.99 44.6327C192.577 44.8397 192.046 45.0507 191.857 45.0858C191.754 45.1054 191.857 45.039 192.203 44.8593C193.526 44.1835 194.364 43.4998 195.057 42.5428C195.49 41.9451 195.742 41.3513 195.832 40.738C195.907 40.2146 195.789 39.7302 195.478 39.3317C195.34 39.1481 194.95 38.902 194.655 38.8122C194.309 38.7067 194.175 38.7145 194.427 38.8239Z" fill="#DCDFFE"/>
<path d="M194.037 39.1967C194.352 39.3803 194.655 39.6811 194.801 39.9467C194.911 40.1537 194.931 40.2397 194.95 40.5444C194.97 40.8491 194.978 40.8764 195.001 40.7436C195.053 40.4858 195.041 40.1655 194.974 39.9467C194.895 39.6772 194.616 39.392 194.277 39.2396C193.927 39.0834 193.801 39.056 194.037 39.1967Z" fill="#DCDFFE"/>
<path d="M189.716 40.2987C189.653 40.3339 189.645 40.4237 189.645 41.291V42.248H189.782C190.117 42.248 190.601 42.4199 190.762 42.5957C190.806 42.6426 190.853 42.6777 190.873 42.6777C190.888 42.6777 190.904 42.248 190.904 41.7207C190.904 40.9238 190.892 40.7402 190.841 40.6425C190.766 40.4941 190.459 40.3456 190.16 40.3144C190.038 40.3026 189.904 40.2831 189.861 40.2753C189.818 40.2675 189.751 40.2792 189.716 40.2987Z" fill="#DCDFFE"/>
<path d="M191.967 40.2939C191.597 40.3446 191.408 40.411 191.27 40.5478L191.14 40.6767V41.6845V42.6924L191.251 42.5908C191.463 42.3916 191.88 42.2471 192.242 42.2471H192.4V41.3134C192.4 40.5165 192.392 40.3681 192.337 40.3173C192.305 40.2821 192.254 40.2587 192.231 40.2587C192.203 40.2626 192.085 40.2782 191.967 40.2939Z" fill="#DCDFFE"/>
<path d="M189.18 40.6163C189.109 40.6866 189.113 42.6906 189.184 42.7492C189.208 42.7687 189.405 42.8078 189.613 42.8312C190.208 42.8976 190.53 43.0383 190.794 43.339C190.947 43.5187 191.081 43.5031 191.298 43.2804C191.581 42.9914 191.892 42.8742 192.549 42.8156C192.766 42.7961 192.845 42.7726 192.872 42.7179C192.927 42.6203 192.923 40.7452 192.872 40.6436C192.849 40.6046 192.793 40.5694 192.754 40.5694C192.679 40.5694 192.675 40.6007 192.675 41.546V42.5226H192.49C191.994 42.5265 191.439 42.7257 191.172 43.0031L190.999 43.175L190.849 43.0031C190.766 42.9093 190.617 42.7921 190.515 42.7375C190.302 42.632 189.81 42.5226 189.546 42.5226H189.369V41.546C189.369 40.6319 189.365 40.5694 189.298 40.5694C189.259 40.5694 189.208 40.5889 189.18 40.6163Z" fill="#DCDFFE"/>
<path d="M186.866 42.1165C186.63 42.5384 186.488 43.0267 186.48 43.4408C186.476 43.7494 186.492 43.8197 186.59 44.0385C186.72 44.3158 186.893 44.4838 187.189 44.6205C187.433 44.7299 187.932 44.7963 188.228 44.7573L188.444 44.726L188.172 44.6596C187.354 44.4487 186.834 43.9799 186.732 43.3549C186.681 43.058 186.748 42.6205 186.905 42.1986C186.976 42.0111 187.031 41.8587 187.023 41.8587C187.015 41.8587 186.944 41.9759 186.866 42.1165Z" fill="#DCDFFE"/>
<path d="M195.415 42.8167C195.265 43.0432 194.557 43.7698 194.073 44.2034C193.844 44.4027 193.825 44.43 193.955 44.3558C194.588 44.0003 195.214 43.3714 195.505 42.8049C195.631 42.5588 195.584 42.5667 195.415 42.8167Z" fill="#DCDFFE"/>
<path d="M189.901 47.7368C189.727 47.7642 189.515 47.8149 189.428 47.8501L189.271 47.9165L189.361 47.9907C189.523 48.1236 189.968 48.1939 190.79 48.2134C191.821 48.2407 192.51 48.1626 192.719 47.9946L192.809 47.9243L192.691 47.8618C192.447 47.7368 191.581 47.6431 191.546 47.7407C191.538 47.7681 191.664 47.7993 191.904 47.8267C192.109 47.8501 192.317 47.8892 192.365 47.9165C192.447 47.9595 192.451 47.9634 192.384 48.0142C192.266 48.1001 191.912 48.1275 191.003 48.1275C190.172 48.1236 189.72 48.0767 189.664 47.9907C189.625 47.9282 189.802 47.8696 190.168 47.8267C190.566 47.7798 190.593 47.7681 190.511 47.7173C190.436 47.6704 190.294 47.6743 189.901 47.7368Z" fill="#DCDFFE"/>
<path d="M201.738 45.9129C201.237 45.9129 200.789 45.8041 200.396 45.5865C200.01 45.3629 199.704 45.0576 199.481 44.6708C199.257 44.2839 199.145 43.8457 199.145 43.356V39.4482H200.378V43.3923C200.378 43.6764 200.436 43.9212 200.551 44.1267C200.671 44.3323 200.835 44.4924 201.04 44.6073C201.252 44.7161 201.484 44.7705 201.738 44.7705C201.998 44.7705 202.228 44.7161 202.427 44.6073C202.627 44.4924 202.784 44.3323 202.899 44.1267C203.02 43.9212 203.08 43.6794 203.08 43.4014V39.4482H204.322V43.3651C204.322 43.8547 204.211 44.293 203.987 44.6798C203.763 45.0606 203.458 45.3629 203.071 45.5865C202.69 45.8041 202.246 45.9129 201.738 45.9129ZM208.269 45.8223V43.3107C208.269 43.0508 208.188 42.8392 208.024 42.676C207.861 42.5128 207.65 42.4312 207.39 42.4312C207.22 42.4312 207.069 42.4675 206.936 42.54C206.803 42.6126 206.698 42.7153 206.619 42.8483C206.546 42.9813 206.51 43.1354 206.51 43.3107L206.048 43.075C206.048 42.7304 206.12 42.4312 206.265 42.1773C206.417 41.9174 206.622 41.7149 206.882 41.5699C207.148 41.4248 207.447 41.3522 207.78 41.3522C208.1 41.3522 208.387 41.4338 208.641 41.5971C208.895 41.7542 209.094 41.9628 209.239 42.2227C209.384 42.4765 209.457 42.7516 209.457 43.0478V45.8223H208.269ZM205.322 45.8223V41.4429H206.51V45.8223H205.322ZM210.323 45.8223V41.4429H211.52V45.8223H210.323ZM210.922 40.7357C210.728 40.7357 210.568 40.6722 210.441 40.5453C210.314 40.4123 210.251 40.2491 210.251 40.0557C210.251 39.8683 210.314 39.7081 210.441 39.5751C210.568 39.4421 210.728 39.3756 210.922 39.3756C211.121 39.3756 211.281 39.4421 211.402 39.5751C211.529 39.7081 211.592 39.8683 211.592 40.0557C211.592 40.2491 211.529 40.4123 211.402 40.5453C211.281 40.6722 211.121 40.7357 210.922 40.7357ZM212.608 45.8223V39.4482H213.47L213.841 40.6813V45.8223H212.608ZM217.015 45.8223L213.234 40.9261L213.47 39.4482L217.251 44.3443L217.015 45.8223ZM217.015 45.8223L216.661 44.6254V39.4482H217.904V45.8223H217.015ZM220.81 45.9129C220.411 45.9129 220.051 45.8132 219.731 45.6137C219.411 45.4143 219.16 45.1422 218.979 44.7977C218.797 44.4532 218.706 44.0663 218.706 43.6371C218.706 43.2019 218.797 42.812 218.979 42.4675C219.16 42.1229 219.411 41.8509 219.731 41.6515C220.051 41.452 220.411 41.3522 220.81 41.3522C221.124 41.3522 221.405 41.4157 221.653 41.5427C221.901 41.6696 222.098 41.8479 222.243 42.0776C222.394 42.3013 222.475 42.5551 222.487 42.8392V44.4169C222.475 44.707 222.394 44.9639 222.243 45.1876C222.098 45.4112 221.901 45.5895 221.653 45.7225C221.405 45.8495 221.124 45.9129 220.81 45.9129ZM221.028 44.8158C221.36 44.8158 221.629 44.707 221.835 44.4894C222.04 44.2658 222.143 43.9786 222.143 43.6281C222.143 43.3984 222.095 43.1959 221.998 43.0206C221.907 42.8392 221.777 42.7002 221.608 42.6035C221.445 42.5007 221.251 42.4493 221.028 42.4493C220.81 42.4493 220.617 42.5007 220.447 42.6035C220.284 42.7002 220.154 42.8392 220.057 43.0206C219.967 43.1959 219.921 43.3984 219.921 43.6281C219.921 43.8638 219.967 44.0723 220.057 44.2537C220.154 44.429 220.284 44.568 220.447 44.6708C220.617 44.7675 220.81 44.8158 221.028 44.8158ZM222.079 45.8223V44.6436L222.27 43.5737L222.079 42.5219V41.4429H223.258V45.8223H222.079ZM225.642 45.8223L223.71 41.4429H225.016L226.403 45.0516H225.76L227.156 41.4429H228.416L226.494 45.8223H225.642Z" fill="#DCDFFE"/>
<rect x="307.933" y="30.5898" width="23.4667" height="23.4667" rx="11.7333" fill="white"/>
<g clip-path="url(#clip12_42_1012)">
<path d="M315.458 43.5543C315.363 44.1739 315.786 44.6039 316.303 44.8182C318.287 45.6399 321.047 45.6399 323.03 44.8182C323.548 44.6039 323.97 44.1739 323.876 43.5543C323.818 43.1735 323.53 42.8565 323.318 42.5469C323.039 42.1364 323.011 41.6886 323.011 41.2122C323.011 39.3713 321.514 37.8789 319.667 37.8789C317.82 37.8789 316.322 39.3713 316.322 41.2122C316.322 41.6886 316.295 42.1364 316.016 42.5469C315.803 42.8565 315.516 43.1735 315.458 43.5543Z" stroke="black" stroke-width="0.8" stroke-linecap="round" stroke-linejoin="round"/>
<path d="M317.889 45.4346C318.093 46.2013 318.811 46.7679 319.667 46.7679C320.522 46.7679 321.241 46.2013 321.445 45.4346" stroke="black" stroke-width="0.8" stroke-linecap="round" stroke-linejoin="round"/>
</g>
<circle cx="326.067" cy="32.7204" r="2.66667" fill="#16B364" stroke="#EDFCF2" stroke-width="0.533333"/>
<rect x="339" y="31.7896" width="21.0667" height="21.0667" rx="4.13333" stroke="#DCDFE3" stroke-width="0.266667"/>
<path d="M345.267 38.5898L353.8 38.5898" stroke="white" stroke-width="0.8" stroke-linecap="round" stroke-linejoin="round"/>
<path d="M345.267 42.3232L353.8 42.3232" stroke="white" stroke-width="0.8" stroke-linecap="round" stroke-linejoin="round"/>
<path d="M345.267 46.0566L353.8 46.0566" stroke="white" stroke-width="0.8" stroke-linecap="round" stroke-linejoin="round"/>
<path d="M189.457 79.0146L186.551 69.9778H188.548L190.673 76.9282H189.892L191.965 69.9778H193.54L195.613 76.9282H194.845L196.957 69.9778H198.941L196.036 79.0146H194.461L192.375 72.0642H193.117L191.031 79.0146H189.457ZM202.122 79.1554C201.448 79.1554 200.846 79.0189 200.317 78.7458C199.796 78.4642 199.387 78.076 199.088 77.581C198.789 77.0861 198.64 76.5272 198.64 75.9042C198.64 75.2813 198.785 74.7266 199.075 74.2402C199.374 73.7453 199.775 73.357 200.278 73.0754C200.782 72.7938 201.349 72.653 201.981 72.653C202.595 72.653 203.137 72.7853 203.606 73.0498C204.076 73.3144 204.443 73.6813 204.707 74.1506C204.98 74.62 205.117 75.1576 205.117 75.7634C205.117 75.8744 205.108 75.9938 205.091 76.1218C205.083 76.2413 205.061 76.3821 205.027 76.5442L199.664 76.557V75.213L204.195 75.2002L203.35 75.7634C203.342 75.405 203.286 75.1106 203.184 74.8802C203.082 74.6413 202.928 74.4621 202.723 74.3426C202.527 74.2146 202.284 74.1506 201.994 74.1506C201.686 74.1506 201.418 74.2232 201.187 74.3682C200.965 74.5048 200.79 74.701 200.662 74.957C200.543 75.213 200.483 75.5245 200.483 75.8914C200.483 76.2584 200.547 76.5741 200.675 76.8386C200.812 77.0946 201 77.2952 201.238 77.4402C201.486 77.5768 201.776 77.645 202.109 77.645C202.416 77.645 202.693 77.5938 202.941 77.4914C203.188 77.3805 203.406 77.2184 203.594 77.005L204.669 78.0802C204.362 78.4386 203.99 78.7074 203.555 78.8866C203.12 79.0658 202.642 79.1554 202.122 79.1554ZM206.062 79.0146V69.7218H208.021V79.0146H206.062ZM212.408 79.1554C211.768 79.1554 211.187 79.0146 210.667 78.733C210.146 78.4514 209.737 78.0632 209.438 77.5682C209.139 77.0733 208.99 76.5186 208.99 75.9042C208.99 75.2813 209.139 74.7266 209.438 74.2402C209.745 73.7453 210.159 73.357 210.68 73.0754C211.2 72.7938 211.785 72.653 212.433 72.653C212.92 72.653 213.363 72.7384 213.764 72.909C214.174 73.0712 214.537 73.3186 214.852 73.6514L213.598 74.9058C213.453 74.7437 213.282 74.6242 213.086 74.5474C212.898 74.4706 212.681 74.4322 212.433 74.4322C212.152 74.4322 211.9 74.4962 211.678 74.6242C211.465 74.7437 211.294 74.9144 211.166 75.1362C211.047 75.3496 210.987 75.6013 210.987 75.8914C210.987 76.1816 211.047 76.4376 211.166 76.6594C211.294 76.8813 211.469 77.0562 211.691 77.1842C211.913 77.3122 212.16 77.3762 212.433 77.3762C212.689 77.3762 212.915 77.3336 213.112 77.2482C213.316 77.1544 213.491 77.0264 213.636 76.8642L214.878 78.1186C214.554 78.46 214.187 78.7202 213.777 78.8994C213.368 79.0701 212.911 79.1554 212.408 79.1554ZM218.595 79.1554C217.955 79.1554 217.375 79.0146 216.854 78.733C216.342 78.4429 215.937 78.0504 215.638 77.5554C215.339 77.0605 215.19 76.5058 215.19 75.8914C215.19 75.277 215.339 74.7266 215.638 74.2402C215.937 73.7538 216.342 73.3698 216.854 73.0882C217.366 72.7981 217.946 72.653 218.595 72.653C219.243 72.653 219.824 72.7938 220.336 73.0754C220.848 73.357 221.253 73.7453 221.552 74.2402C221.85 74.7266 222 75.277 222 75.8914C222 76.5058 221.85 77.0605 221.552 77.5554C221.253 78.0504 220.848 78.4429 220.336 78.733C219.824 79.0146 219.243 79.1554 218.595 79.1554ZM218.595 77.3762C218.876 77.3762 219.124 77.3165 219.337 77.197C219.551 77.069 219.713 76.8941 219.824 76.6722C219.943 76.4418 220.003 76.1816 220.003 75.8914C220.003 75.6013 219.943 75.3496 219.824 75.1362C219.704 74.9144 219.538 74.7437 219.324 74.6242C219.12 74.4962 218.876 74.4322 218.595 74.4322C218.322 74.4322 218.079 74.4962 217.865 74.6242C217.652 74.7437 217.486 74.9144 217.366 75.1362C217.247 75.3581 217.187 75.6141 217.187 75.9042C217.187 76.1858 217.247 76.4418 217.366 76.6722C217.486 76.8941 217.652 77.069 217.865 77.197C218.079 77.3165 218.322 77.3762 218.595 77.3762ZM222.975 79.0146V72.7938H224.933V79.0146H222.975ZM226.955 79.0146V75.3794C226.955 75.0637 226.857 74.8205 226.661 74.6498C226.473 74.4706 226.239 74.381 225.957 74.381C225.761 74.381 225.586 74.4237 225.432 74.509C225.279 74.5858 225.155 74.6968 225.061 74.8418C224.976 74.9869 224.933 75.1661 224.933 75.3794L224.178 75.0466C224.178 74.5517 224.285 74.1293 224.498 73.7794C224.711 73.421 225.001 73.148 225.368 72.9602C225.735 72.764 226.149 72.6658 226.61 72.6658C227.045 72.6658 227.433 72.764 227.775 72.9602C228.125 73.1565 228.402 73.4296 228.607 73.7794C228.811 74.1293 228.914 74.5474 228.914 75.0338V79.0146H226.955ZM230.936 79.0146V75.3794C230.936 75.0637 230.838 74.8205 230.642 74.6498C230.454 74.4706 230.219 74.381 229.938 74.381C229.742 74.381 229.567 74.4237 229.413 74.509C229.259 74.5858 229.136 74.6968 229.042 74.8418C228.957 74.9869 228.914 75.1661 228.914 75.3794L227.787 75.2258C227.805 74.6968 227.928 74.2445 228.159 73.869C228.398 73.485 228.709 73.1906 229.093 72.9858C229.486 72.7725 229.925 72.6658 230.411 72.6658C230.889 72.6658 231.312 72.7682 231.679 72.973C232.054 73.1693 232.349 73.4552 232.562 73.8306C232.784 74.1976 232.895 74.6413 232.895 75.1618V79.0146H230.936ZM237.222 79.1554C236.548 79.1554 235.946 79.0189 235.417 78.7458C234.896 78.4642 234.487 78.076 234.188 77.581C233.889 77.0861 233.74 76.5272 233.74 75.9042C233.74 75.2813 233.885 74.7266 234.175 74.2402C234.474 73.7453 234.875 73.357 235.378 73.0754C235.882 72.7938 236.449 72.653 237.081 72.653C237.695 72.653 238.237 72.7853 238.706 73.0498C239.176 73.3144 239.543 73.6813 239.807 74.1506C240.08 74.62 240.217 75.1576 240.217 75.7634C240.217 75.8744 240.208 75.9938 240.191 76.1218C240.183 76.2413 240.161 76.3821 240.127 76.5442L234.764 76.557V75.213L239.295 75.2002L238.45 75.7634C238.442 75.405 238.386 75.1106 238.284 74.8802C238.182 74.6413 238.028 74.4621 237.823 74.3426C237.627 74.2146 237.384 74.1506 237.094 74.1506C236.786 74.1506 236.518 74.2232 236.287 74.3682C236.065 74.5048 235.89 74.701 235.762 74.957C235.643 75.213 235.583 75.5245 235.583 75.8914C235.583 76.2584 235.647 76.5741 235.775 76.8386C235.912 77.0946 236.1 77.2952 236.338 77.4402C236.586 77.5768 236.876 77.645 237.209 77.645C237.516 77.645 237.793 77.5938 238.041 77.4914C238.288 77.3805 238.506 77.2184 238.694 77.005L239.769 78.0802C239.462 78.4386 239.09 78.7074 238.655 78.8866C238.22 79.0658 237.742 79.1554 237.222 79.1554ZM241.162 80.5506L242.097 78.8098L242.673 78.6434C242.613 78.7714 242.54 78.8781 242.455 78.9634C242.37 79.0402 242.272 79.0786 242.161 79.0786C241.913 79.0786 241.687 78.9762 241.482 78.7714C241.277 78.5666 241.175 78.3106 241.175 78.0034C241.175 77.6706 241.286 77.3848 241.508 77.1458C241.738 76.9069 242.02 76.7874 242.353 76.7874C242.668 76.7874 242.941 76.9069 243.172 77.1458C243.411 77.3762 243.53 77.6621 243.53 78.0034C243.53 78.14 243.505 78.2978 243.453 78.477C243.402 78.6562 243.3 78.8909 243.146 79.181L242.109 81.0754L241.162 80.5506Z" fill="white"/>
<rect width="42.6668" height="16.0872" transform="translate(186.333 92.2402)" fill="#DCDFFE"/>
<rect width="42.6668" height="16.0872" transform="translate(237.584 92.2402)" fill="#DCDFFE"/>
<rect width="42.6668" height="16.0872" transform="translate(288.835 92.2402)" fill="#DCDFFE"/>
<rect width="42.6668" height="16.0872" transform="translate(340.086 92.2402)" fill="#DCDFFE"/>
</g>
<g clip-path="url(#clip13_42_1012)">
<rect width="56" height="12.2667" transform="translate(181.533 138.322)" fill="#1D1E31"/>
<rect width="206.871" height="10.6667" transform="translate(181.533 152.306)" fill="#AFAFB6"/>
<rect x="181.533" y="171.572" width="13.7342" height="13.7342" rx="6.86709" fill="#030D81"/>
<path d="M188.243 180.939V176.558L187.312 177.118V176.551L188.243 175.995H188.755V180.939H188.243Z" fill="white"/>
<rect width="21.2693" height="0.429193" transform="translate(196.984 178.225)" fill="#DCDFE3"/>
<path d="M196.984 178.225C197.221 178.225 197.413 178.417 197.413 178.654C197.413 178.891 197.221 179.083 196.984 179.083V178.225Z" fill="#030D81"/>
<rect x="230.7" y="172.001" width="12.8758" height="12.8758" rx="6.4379" stroke="#030D81" stroke-width="0.858386"/>
<path d="M235.481 180.936L235.485 180.476L237.72 178.457C237.912 178.283 238.039 178.118 238.101 177.963C238.165 177.805 238.197 177.64 238.197 177.468C238.197 177.264 238.149 177.08 238.053 176.915C237.957 176.751 237.828 176.62 237.665 176.524C237.503 176.425 237.321 176.376 237.119 176.376C236.909 176.376 236.721 176.427 236.556 176.527C236.391 176.628 236.261 176.761 236.165 176.926C236.071 177.09 236.025 177.27 236.027 177.465H235.512C235.512 177.165 235.583 176.896 235.725 176.658C235.867 176.42 236.059 176.233 236.302 176.098C236.545 175.961 236.819 175.892 237.126 175.892C237.426 175.892 237.695 175.963 237.933 176.105C238.173 176.245 238.362 176.435 238.5 176.675C238.639 176.913 238.709 177.179 238.709 177.472C238.709 177.678 238.684 177.86 238.633 178.018C238.585 178.173 238.509 178.319 238.403 178.454C238.3 178.586 238.169 178.724 238.009 178.866L236.024 180.658L235.945 180.452H238.709V180.936H235.481Z" fill="#10384F"/>
<rect width="21.2693" height="0.429193" transform="translate(245.722 178.225)" fill="#DCDFE3"/>
<path d="M245.722 178.225C245.959 178.225 246.151 178.417 246.151 178.654C246.151 178.891 245.959 179.083 245.722 179.083V178.225Z" fill="#030D81"/>
<rect x="279.438" y="172.001" width="12.8758" height="12.8758" rx="6.4379" stroke="#030D81" stroke-width="0.858386"/>
<path d="M285.685 181.039C285.44 181.039 285.215 180.996 285.009 180.909C284.803 180.822 284.625 180.698 284.477 180.538C284.328 180.375 284.219 180.182 284.15 179.957L284.631 179.813C284.714 180.058 284.849 180.244 285.036 180.369C285.226 180.495 285.44 180.556 285.678 180.551C285.898 180.547 286.087 180.498 286.245 180.404C286.405 180.31 286.528 180.179 286.612 180.012C286.697 179.845 286.739 179.652 286.739 179.432C286.739 179.096 286.641 178.826 286.444 178.622C286.249 178.416 285.992 178.313 285.671 178.313C285.582 178.313 285.488 178.325 285.39 178.351C285.291 178.373 285.2 178.407 285.115 178.45L284.861 178.048L286.784 176.273L286.866 176.479H284.346V175.995H287.203V176.486L285.527 178.086L285.52 177.887C285.864 177.844 286.166 177.882 286.427 178.004C286.688 178.125 286.892 178.311 287.038 178.56C287.187 178.807 287.261 179.098 287.261 179.432C287.261 179.748 287.193 180.027 287.055 180.27C286.92 180.51 286.734 180.699 286.496 180.836C286.257 180.971 285.987 181.039 285.685 181.039Z" fill="#10384F"/>
<rect width="21.2693" height="0.429193" transform="translate(294.46 178.225)" fill="#DCDFE3"/>
<path d="M294.46 178.225C294.697 178.225 294.889 178.417 294.889 178.654C294.889 178.891 294.697 179.083 294.46 179.083V178.225Z" fill="#030D81"/>
<rect x="328.176" y="172.001" width="12.8758" height="12.8758" rx="6.4379" stroke="#030D81" stroke-width="0.858386"/>
<path d="M334.771 180.939V179.981H332.457V179.501L334.112 175.995H334.678L333.023 179.501H334.771V178.059H335.279V179.501H335.818V179.981H335.279V180.939H334.771Z" fill="#10384F"/>
<rect width="21.2693" height="0.429193" transform="translate(343.197 178.225)" fill="#DCDFE3"/>
<path d="M343.197 178.225C343.434 178.225 343.626 178.417 343.626 178.654C343.626 178.891 343.434 179.083 343.197 179.083V178.225Z" fill="#030D81"/>
<rect x="181.533" y="193.905" width="150.933" height="23.4667" rx="11.7333" stroke="#A5A8B5" stroke-width="0.266667"/>
<g clip-path="url(#clip14_42_1012)">
<path d="M197.844 208.084L199.844 210.084" stroke="#A5A8B5" stroke-width="0.8" stroke-linecap="round" stroke-linejoin="round"/>
<path d="M198.956 205.194C198.956 202.985 197.165 201.194 194.956 201.194C192.746 201.194 190.956 202.985 190.956 205.194C190.956 207.403 192.746 209.194 194.956 209.194C197.165 209.194 198.956 207.403 198.956 205.194Z" stroke="#A5A8B5" stroke-width="0.8" stroke-linejoin="round"/>
</g>
<path d="M209.773 209.735C209.249 209.735 208.801 209.639 208.429 209.447C208.058 209.255 207.729 208.976 207.441 208.611L208.055 207.997C208.266 208.291 208.509 208.515 208.785 208.669C209.06 208.816 209.399 208.89 209.802 208.89C210.199 208.89 210.516 208.803 210.753 208.631C210.996 208.458 211.117 208.221 211.117 207.92C211.117 207.671 211.06 207.469 210.945 207.315C210.829 207.162 210.673 207.037 210.474 206.941C210.282 206.839 210.071 206.749 209.841 206.672C209.61 206.589 209.38 206.503 209.149 206.413C208.919 206.317 208.708 206.202 208.516 206.067C208.324 205.927 208.167 205.744 208.045 205.52C207.93 205.296 207.873 205.015 207.873 204.675C207.873 204.298 207.962 203.978 208.141 203.715C208.327 203.447 208.577 203.242 208.89 203.101C209.21 202.954 209.569 202.88 209.965 202.88C210.401 202.88 210.791 202.967 211.137 203.139C211.482 203.306 211.764 203.527 211.981 203.802L211.367 204.416C211.169 204.186 210.954 204.013 210.724 203.898C210.5 203.783 210.241 203.725 209.946 203.725C209.588 203.725 209.303 203.805 209.092 203.965C208.881 204.119 208.775 204.336 208.775 204.618C208.775 204.842 208.833 205.024 208.948 205.165C209.069 205.299 209.226 205.415 209.418 205.511C209.61 205.607 209.821 205.696 210.052 205.779C210.289 205.856 210.522 205.943 210.753 206.039C210.983 206.135 211.194 206.256 211.386 206.403C211.578 206.551 211.732 206.743 211.847 206.979C211.969 207.21 212.029 207.501 212.029 207.853C212.029 208.442 211.825 208.903 211.415 209.235C211.012 209.568 210.465 209.735 209.773 209.735ZM215.138 209.735C214.684 209.735 214.274 209.632 213.909 209.427C213.545 209.216 213.257 208.931 213.045 208.573C212.834 208.215 212.729 207.808 212.729 207.354C212.729 206.906 212.831 206.503 213.036 206.144C213.247 205.786 213.529 205.504 213.881 205.299C214.239 205.088 214.639 204.983 215.081 204.983C215.503 204.983 215.874 205.079 216.194 205.271C216.521 205.463 216.773 205.728 216.953 206.067C217.138 206.407 217.231 206.791 217.231 207.219C217.231 207.283 217.228 207.354 217.221 207.431C217.215 207.501 217.202 207.584 217.183 207.68H213.333V206.96H216.722L216.405 207.239C216.405 206.931 216.351 206.672 216.242 206.461C216.133 206.243 215.98 206.077 215.781 205.962C215.583 205.84 215.343 205.779 215.061 205.779C214.767 205.779 214.508 205.843 214.284 205.971C214.06 206.099 213.887 206.279 213.765 206.509C213.644 206.739 213.583 207.011 213.583 207.325C213.583 207.645 213.647 207.927 213.775 208.17C213.903 208.407 214.085 208.592 214.322 208.727C214.559 208.855 214.831 208.919 215.138 208.919C215.394 208.919 215.628 208.874 215.839 208.784C216.057 208.695 216.242 208.56 216.396 208.381L216.953 208.947C216.735 209.203 216.466 209.399 216.146 209.533C215.833 209.667 215.497 209.735 215.138 209.735ZM220.112 209.735C219.696 209.735 219.319 209.632 218.98 209.427C218.64 209.216 218.372 208.931 218.173 208.573C217.981 208.215 217.885 207.811 217.885 207.363C217.885 206.915 217.981 206.512 218.173 206.154C218.372 205.795 218.637 205.511 218.97 205.299C219.309 205.088 219.69 204.983 220.112 204.983C220.458 204.983 220.765 205.056 221.034 205.203C221.309 205.344 221.53 205.543 221.696 205.799C221.863 206.048 221.956 206.339 221.975 206.672V208.045C221.956 208.371 221.863 208.663 221.696 208.919C221.536 209.175 221.319 209.376 221.044 209.523C220.775 209.664 220.464 209.735 220.112 209.735ZM220.256 208.919C220.685 208.919 221.031 208.775 221.293 208.487C221.556 208.192 221.687 207.818 221.687 207.363C221.687 207.05 221.626 206.778 221.504 206.547C221.389 206.311 221.223 206.128 221.005 206C220.788 205.866 220.535 205.799 220.247 205.799C219.959 205.799 219.703 205.866 219.479 206C219.261 206.135 219.088 206.32 218.96 206.557C218.839 206.787 218.778 207.053 218.778 207.354C218.778 207.661 218.839 207.933 218.96 208.17C219.088 208.4 219.264 208.583 219.488 208.717C219.712 208.851 219.968 208.919 220.256 208.919ZM221.629 209.639V208.41L221.792 207.296L221.629 206.192V205.079H222.503V209.639H221.629ZM223.761 209.639V205.079H224.625V209.639H223.761ZM224.625 207.037L224.298 206.893C224.298 206.311 224.433 205.847 224.701 205.501C224.97 205.155 225.357 204.983 225.863 204.983C226.093 204.983 226.301 205.024 226.487 205.107C226.673 205.184 226.845 205.315 227.005 205.501L226.439 206.087C226.343 205.984 226.237 205.911 226.122 205.866C226.007 205.821 225.873 205.799 225.719 205.799C225.399 205.799 225.137 205.901 224.932 206.106C224.727 206.311 224.625 206.621 224.625 207.037ZM229.547 209.735C229.099 209.735 228.693 209.629 228.328 209.418C227.969 209.207 227.685 208.922 227.473 208.563C227.269 208.199 227.166 207.795 227.166 207.354C227.166 206.906 227.269 206.503 227.473 206.144C227.685 205.786 227.969 205.504 228.328 205.299C228.693 205.088 229.099 204.983 229.547 204.983C229.899 204.983 230.225 205.05 230.526 205.184C230.827 205.312 231.086 205.501 231.304 205.751L230.728 206.327C230.587 206.16 230.414 206.035 230.209 205.952C230.011 205.863 229.79 205.818 229.547 205.818C229.259 205.818 229.003 205.885 228.779 206.019C228.555 206.147 228.379 206.327 228.251 206.557C228.123 206.787 228.059 207.053 228.059 207.354C228.059 207.655 228.123 207.92 228.251 208.151C228.379 208.381 228.555 208.563 228.779 208.698C229.003 208.832 229.259 208.899 229.547 208.899C229.79 208.899 230.011 208.858 230.209 208.775C230.414 208.685 230.59 208.557 230.737 208.391L231.304 208.967C231.093 209.21 230.833 209.399 230.526 209.533C230.225 209.667 229.899 209.735 229.547 209.735ZM235.386 209.639V206.979C235.386 206.634 235.277 206.349 235.06 206.125C234.842 205.901 234.561 205.789 234.215 205.789C233.985 205.789 233.78 205.84 233.601 205.943C233.421 206.045 233.281 206.186 233.178 206.365C233.076 206.544 233.025 206.749 233.025 206.979L232.669 206.778C232.669 206.432 232.746 206.125 232.9 205.856C233.053 205.587 233.268 205.376 233.543 205.223C233.818 205.063 234.129 204.983 234.474 204.983C234.82 204.983 235.124 205.059 235.386 205.213C235.655 205.367 235.866 205.581 236.02 205.856C236.173 206.131 236.25 206.448 236.25 206.807V209.639H235.386ZM232.161 209.639V202.784H233.025V209.639H232.161Z" fill="#A5A8B5"/>
<path d="M355.667 205.104H350.333" stroke="#969696" stroke-linecap="round"/>
<path d="M356.733 202.437L348.733 202.437" stroke="#969696" stroke-linecap="round"/>
<path d="M351.133 207.77L353.8 207.77" stroke="#969696" stroke-linecap="round"/>
<rect x="181.533" y="225.905" width="0.863143" height="494.001" fill="#E7E9F8"/>
<rect x="355.313" y="225.905" width="0.863143" height="493.572" fill="#E7E9F8"/>
<rect x="351.86" y="225.905" width="4.31572" height="2.57516" fill="#E7E9F8"/>
<rect x="181.533" y="225.905" width="44.308" height="2.57516" fill="#E7E9F8"/>
<rect x="307.265" y="379.557" width="151.505" height="0.863143" transform="rotate(-90 307.265 379.557)" fill="#E7E9F8"/>
<rect x="236.343" y="398.441" width="172.536" height="0.863143" transform="rotate(-90 236.343 398.441)" fill="#E7E9F8"/>
<rect x="270.725" y="317.754" width="91.8473" height="0.863143" transform="rotate(-90 270.725 317.754)" fill="#E7E9F8"/>
<rect x="225.842" y="225.905" width="130.335" height="2.57516" fill="#E7E9F8"/>
</g>
</g>
<defs>
<filter id="filter0_d_42_1012" x="-1.53333" y="-0.807031" width="308.117" height="440.392" filterUnits="userSpaceOnUse" color-interpolation-filters="sRGB">
<feFlood flood-opacity="0" result="BackgroundImageFix"/>
<feColorMatrix in="SourceAlpha" type="matrix" values="0 0 0 0 0 0 0 0 0 0 0 0 0 0 0 0 0 0 127 0" result="hardAlpha"/>
<feMorphology radius="6.4" operator="erode" in="SourceAlpha" result="effect1_dropShadow_42_1012"/>
<feOffset dx="9.06667" dy="16"/>
<feGaussianBlur stdDeviation="12"/>
<feColorMatrix type="matrix" values="0 0 0 0 0.0392157 0 0 0 0 0.0509804 0 0 0 0 0.0705882 0 0 0 0.03 0"/>
<feBlend mode="normal" in2="BackgroundImageFix" result="effect1_dropShadow_42_1012"/>
<feBlend mode="normal" in="SourceGraphic" in2="effect1_dropShadow_42_1012" result="shape"/>
</filter>
<filter id="filter1_d_42_1012" x="257.179" y="-0.807031" width="308.117" height="440.392" filterUnits="userSpaceOnUse" color-interpolation-filters="sRGB">
<feFlood flood-opacity="0" result="BackgroundImageFix"/>
<feColorMatrix in="SourceAlpha" type="matrix" values="0 0 0 0 0 0 0 0 0 0 0 0 0 0 0 0 0 0 127 0" result="hardAlpha"/>
<feMorphology radius="6.4" operator="erode" in="SourceAlpha" result="effect1_dropShadow_42_1012"/>
<feOffset dx="9.06667" dy="16"/>
<feGaussianBlur stdDeviation="12"/>
<feColorMatrix type="matrix" values="0 0 0 0 0.0392157 0 0 0 0 0.0509804 0 0 0 0 0.0705882 0 0 0 0.03 0"/>
<feBlend mode="normal" in2="BackgroundImageFix" result="effect1_dropShadow_42_1012"/>
<feBlend mode="normal" in="SourceGraphic" in2="effect1_dropShadow_42_1012" result="shape"/>
</filter>
<filter id="filter2_d_42_1012" x="164.467" y="15.9225" width="235.2" height="406.933" filterUnits="userSpaceOnUse" color-interpolation-filters="sRGB">
<feFlood flood-opacity="0" result="BackgroundImageFix"/>
<feColorMatrix in="SourceAlpha" type="matrix" values="0 0 0 0 0 0 0 0 0 0 0 0 0 0 0 0 0 0 127 0" result="hardAlpha"/>
<feMorphology radius="6.4" operator="erode" in="SourceAlpha" result="effect1_dropShadow_42_1012"/>
<feOffset dx="9.06667" dy="16"/>
<feGaussianBlur stdDeviation="12"/>
<feColorMatrix type="matrix" values="0 0 0 0 0.0392157 0 0 0 0 0.0509804 0 0 0 0 0.0705882 0 0 0 0.03 0"/>
<feBlend mode="normal" in2="BackgroundImageFix" result="effect1_dropShadow_42_1012"/>
<feBlend mode="normal" in="SourceGraphic" in2="effect1_dropShadow_42_1012" result="shape"/>
</filter>
<clipPath id="clip0_42_1012">
<path d="M14.6336 55.2011C13.4088 49.4388 17.0872 43.7747 22.8495 42.5499L188.222 7.39892C193.984 6.1741 199.648 9.85246 200.873 15.6148L220.832 109.517L34.5931 149.103L14.6336 55.2011Z" fill="white"/>
</clipPath>
<clipPath id="clip1_42_1012">
<rect width="10.6667" height="10.6667" fill="white" transform="translate(149.292 32.0312) rotate(-12)"/>
</clipPath>
<clipPath id="clip2_42_1012">
<rect width="12.8" height="12.8" fill="white" transform="translate(177.241 24.999) rotate(-12)"/>
</clipPath>
<clipPath id="clip3_42_1012">
<rect width="182.933" height="247.467" fill="white" transform="translate(40.4625 158.761) rotate(-12)"/>
</clipPath>
<clipPath id="clip4_42_1012">
<rect width="10.6667" height="10.6667" fill="white" transform="translate(61.6964 217.616) rotate(-12)"/>
</clipPath>
<clipPath id="clip5_42_1012">
<rect width="12.8" height="12.8" fill="white" transform="translate(214.327 184.083) rotate(-12)"/>
</clipPath>
<clipPath id="clip6_42_1012">
<path d="M344.757 15.6152C345.981 9.8529 351.646 6.17455 357.408 7.39937L522.78 42.5503C528.542 43.7751 532.221 49.4393 530.996 55.2016L511.036 149.104L324.797 109.517L344.757 15.6152Z" fill="white"/>
</clipPath>
<clipPath id="clip7_42_1012">
<rect width="10.6667" height="10.6667" fill="white" transform="translate(477.198 49.2197) rotate(12)"/>
</clipPath>
<clipPath id="clip8_42_1012">
<rect width="12.8" height="12.8" fill="white" transform="translate(505.59 54.1641) rotate(12)"/>
</clipPath>
<clipPath id="clip9_42_1012">
<rect width="182.933" height="247.467" fill="white" transform="translate(326.231 120.728) rotate(12)"/>
</clipPath>
<clipPath id="clip10_42_1012">
<rect width="10.6667" height="10.6667" fill="white" transform="translate(321.691 183.131) rotate(12)"/>
</clipPath>
<clipPath id="clip11_42_1012">
<path d="M177.8 31.6559C177.8 25.7649 182.576 20.9893 188.467 20.9893H357.533C363.424 20.9893 368.2 25.7649 368.2 31.6559V127.656H177.8V31.6559Z" fill="white"/>
</clipPath>
<clipPath id="clip12_42_1012">
<rect width="10.6667" height="10.6667" fill="white" transform="translate(314.333 36.9902)"/>
</clipPath>
<clipPath id="clip13_42_1012">
<rect width="182.933" height="247.467" fill="white" transform="translate(181.533 138.322)"/>
</clipPath>
<clipPath id="clip14_42_1012">
<rect width="10.6667" height="10.6667" fill="white" transform="translate(190.067 200.306)"/>
</clipPath>
</defs>
</svg>
