<svg width="1440" height="1024" viewBox="0 0 1440 1024" fill="none" xmlns="http://www.w3.org/2000/svg">
<g clip-path="url(#clip0_145_359)">
<rect width="1440" height="1024" fill="white"/>
<mask id="mask0_145_359" style="mask-type:alpha" maskUnits="userSpaceOnUse" x="-331" y="-238" width="1956" height="1440">
<path d="M757.66 303.828C757.66 451.088 660.295 570.465 540.19 570.465C420.084 570.465 -330.322 53.9679 -330.322 -93.292C-330.322 -240.552 747.866 -37.8213 867.971 -37.8213C988.077 -37.8213 757.66 156.568 757.66 303.828Z" fill="url(#paint0_linear_145_359)"/>
<path d="M842.125 934.853C842.125 1082.11 744.76 1201.49 624.655 1201.49C504.549 1201.49 -164.542 1167.17 -164.542 1019.91C-164.542 872.645 -115.084 523.821 5.02197 523.821C125.128 523.821 842.125 787.593 842.125 934.853Z" fill="url(#paint1_radial_145_359)"/>
<path d="M1088.82 304.232C1412.89 596.92 1263.19 449.832 1541.53 442.422C1585.2 450.833 1659.32 451.233 1606.51 385.541C1540.5 303.427 1561.77 245.429 1479.27 155.965C1396.77 66.5009 1346.52 -24.3929 1221.97 -166.683C1097.41 -308.973 1087.83 -191.679 947.408 -202.798C806.988 -213.917 871.034 -196.26 677.29 10.1971C483.546 216.654 764.755 11.543 1088.82 304.232Z" fill="#D9D9D9"/>
<path d="M782.874 764.613C349.194 815.672 558.47 799.913 380.712 1014.23C345.622 1041.55 296.497 1097.06 380.712 1100.59C485.98 1105 515.607 1159.21 637.264 1156.06C758.921 1152.91 860.407 1174.97 1049.51 1174.97C1238.62 1174.97 1156.67 1090.5 1257.53 992.169C1358.38 893.835 1302.91 930.395 1275.18 648.629C1247.44 366.863 1216.55 713.555 782.874 764.613Z" fill="#D9D9D9"/>
</mask>
<g mask="url(#mask0_145_359)">
<line x1="-32.7954" y1="609.548" x2="1478.78" y2="609.548" stroke="#F7F8F8" stroke-width="1.2607"/>
<line x1="-32.7954" y1="932.286" x2="1478.78" y2="932.286" stroke="#F7F8F8" stroke-width="1.2607"/>
<line x1="-32.7954" y1="286.81" x2="1478.78" y2="286.81" stroke="#F7F8F8" stroke-width="1.2607"/>
<line x1="-32.7954" y1="448.178" x2="1478.78" y2="448.178" stroke="#F7F8F8" stroke-width="1.2607"/>
<line x1="-32.7954" y1="770.916" x2="1478.78" y2="770.916" stroke="#F7F8F8" stroke-width="1.2607"/>
<line x1="-32.7954" y1="125.439" x2="1478.78" y2="125.439" stroke="#F7F8F8" stroke-width="1.2607"/>
<line x1="-32.7954" y1="528.863" x2="1478.78" y2="528.863" stroke="#F7F8F8" stroke-width="1.2607"/>
<line x1="-32.7954" y1="851.601" x2="1478.78" y2="851.601" stroke="#F7F8F8" stroke-width="1.2607"/>
<line x1="-32.7954" y1="206.125" x2="1478.78" y2="206.125" stroke="#F7F8F8" stroke-width="1.2607"/>
<line x1="-32.7954" y1="1012.97" x2="1478.78" y2="1012.97" stroke="#F7F8F8" stroke-width="1.2607"/>
<line x1="-32.7954" y1="367.493" x2="1478.78" y2="367.493" stroke="#F7F8F8" stroke-width="1.2607"/>
<line x1="-32.7954" y1="690.233" x2="1478.78" y2="690.233" stroke="#F7F8F8" stroke-width="1.2607"/>
<line x1="-32.7954" y1="44.7544" x2="1478.78" y2="44.7544" stroke="#F7F8F8" stroke-width="1.2607"/>
<line x1="14.4798" y1="-64.2949" x2="14.4798" y2="1103.11" stroke="#F7F8F8" stroke-width="1.2607"/>
<line x1="659.961" y1="-64.2949" x2="659.961" y2="1103.11" stroke="#F7F8F8" stroke-width="1.2607"/>
<line x1="337.22" y1="-64.2949" x2="337.22" y2="1103.11" stroke="#F7F8F8" stroke-width="1.2607"/>
<line x1="982.697" y1="-64.2949" x2="982.696" y2="1103.11" stroke="#F7F8F8" stroke-width="1.2607"/>
<line x1="1305.44" y1="-64.2949" x2="1305.44" y2="1103.11" stroke="#F7F8F8" stroke-width="1.2607"/>
<line x1="175.85" y1="-64.2949" x2="175.85" y2="1103.11" stroke="#F7F8F8" stroke-width="1.2607"/>
<line x1="821.326" y1="-64.2949" x2="821.326" y2="1103.11" stroke="#F7F8F8" stroke-width="1.2607"/>
<line x1="498.59" y1="-64.2949" x2="498.59" y2="1103.11" stroke="#F7F8F8" stroke-width="1.2607"/>
<line x1="1144.07" y1="-64.2949" x2="1144.07" y2="1103.11" stroke="#F7F8F8" stroke-width="1.2607"/>
<line x1="95.1671" y1="-64.2949" x2="95.1671" y2="1103.11" stroke="#F7F8F8" stroke-width="1.2607"/>
<line x1="740.644" y1="-64.2949" x2="740.643" y2="1103.11" stroke="#F7F8F8" stroke-width="1.2607"/>
<line x1="417.903" y1="-64.2949" x2="417.903" y2="1103.11" stroke="#F7F8F8" stroke-width="1.2607"/>
<line x1="1063.38" y1="-64.2949" x2="1063.38" y2="1103.11" stroke="#F7F8F8" stroke-width="1.2607"/>
<line x1="1386.12" y1="-64.2949" x2="1386.12" y2="1103.11" stroke="#F7F8F8" stroke-width="1.2607"/>
<line x1="256.537" y1="-64.2949" x2="256.537" y2="1103.11" stroke="#F7F8F8" stroke-width="1.2607"/>
<line x1="902.014" y1="-64.2949" x2="902.014" y2="1103.11" stroke="#F7F8F8" stroke-width="1.2607"/>
<line x1="579.273" y1="-64.2949" x2="579.273" y2="1103.11" stroke="#F7F8F8" stroke-width="1.2607"/>
<line x1="1224.75" y1="-64.2949" x2="1224.75" y2="1103.11" stroke="#F7F8F8" stroke-width="1.2607"/>
<g opacity="0.7">
<rect x="840.532" y="775.345" width="80.2262" height="80.2262" fill="#030D81" fill-opacity="0.36"/>
<rect x="437.109" y="775.345" width="80.2262" height="80.2262" fill="#036EF2" fill-opacity="0.25"/>
<rect x="1163.73" y="211.469" width="80.2262" height="79.0801" fill="#030D81" fill-opacity="0.11"/>
<rect x="517.335" y="131.243" width="80.2262" height="79.0801" fill="#63A8FD" fill-opacity="0.31"/>
<rect x="1082.36" y="291.695" width="80.2262" height="79.0801" fill="#030D81" fill-opacity="0.11"/>
<rect x="435.963" y="211.469" width="80.2262" height="79.0801" fill="#63A8FD" fill-opacity="0.31"/>
<rect x="1082.36" y="211.469" width="80.2262" height="79.0801" fill="#030D81" fill-opacity="0.11"/>
<rect x="435.963" y="131.243" width="80.2262" height="79.0801" fill="#63A8FD" fill-opacity="0.31"/>
<rect x="356.882" y="775.345" width="80.2262" height="80.2262" fill="#036EF2" fill-opacity="0.25"/>
<rect x="356.882" y="855.571" width="80.2262" height="81.3723" fill="#036EF2" fill-opacity="0.25"/>
<rect x="195.284" y="695.119" width="80.2262" height="80.2262" fill="#036EF2" fill-opacity="0.25"/>
<rect x="1002.13" y="49.8706" width="80.2262" height="80.2262" fill="#2B89FC" fill-opacity="0.11"/>
<rect x="921.904" y="-41.8164" width="80.2262" height="80.2262" fill="#2B89FC" fill-opacity="0.11"/>
<rect x="921.027" y="48.7246" width="80.2262" height="81.3723" fill="#2B89FC" fill-opacity="0.11"/>
<rect x="195.284" y="128.951" width="81.3723" height="82.5184" fill="#0410A2" fill-opacity="0.14"/>
<rect x="113.912" y="48.7246" width="81.3723" height="80.2262" fill="#0410A2" fill-opacity="0.14"/>
<rect x="33.6854" y="49.8706" width="81.3723" height="80.2262" fill="#0410A2" fill-opacity="0.14"/>
<rect x="113.912" y="128.951" width="81.3723" height="82.5184" fill="#0410A2" fill-opacity="0.14"/>
<rect x="437.109" y="-31.5015" width="81.3723" height="80.2262" fill="#0410A2"/>
<rect x="195.284" y="290.549" width="80.2262" height="81.3723" fill="#0410A2" fill-opacity="0.14"/>
<rect x="1163.73" y="695.119" width="80.2262" height="80.2262" fill="#0617E5" fill-opacity="0.16"/>
<rect x="1243.96" y="775.345" width="80.2262" height="80.2262" fill="#0617E5" fill-opacity="0.16"/>
</g>
</g>
</g>
<defs>
<linearGradient id="paint0_linear_145_359" x1="189.086" y1="-19.5411" x2="643.567" y2="222.513" gradientUnits="userSpaceOnUse">
<stop stop-color="white"/>
<stop offset="1" stop-color="white" stop-opacity="0"/>
</linearGradient>
<radialGradient id="paint1_radial_145_359" cx="0" cy="0" r="1" gradientUnits="userSpaceOnUse" gradientTransform="translate(154.415 941.112) rotate(-29.3932) scale(777.019 1335.47)">
<stop stop-color="white"/>
<stop offset="1" stop-color="white" stop-opacity="0"/>
</radialGradient>
<clipPath id="clip0_145_359">
<rect width="1440" height="1024" fill="white"/>
</clipPath>
</defs>
</svg>
