<svg width="200" height="176" viewBox="0 0 200 176" fill="none" xmlns="http://www.w3.org/2000/svg">
<path d="M188.447 62.7357L195.87 148.425C196.464 155.4 192.19 161.519 186.326 162.016L23.1496 175.966C17.3166 176.474 12.0457 171.168 11.4836 164.204L4.05978 78.5039C3.91245 76.8951 4.03792 75.2731 4.43096 73.7058C5.59757 68.9183 9.13981 65.251 13.5729 64.9234L176.749 50.9624C181.171 50.582 185.233 53.5517 187.259 58.0539C187.912 59.5384 188.313 61.1204 188.447 62.7357Z" fill="#0410A2"/>
<path opacity="0.1" d="M188.447 62.7357L195.87 148.425C196.464 155.4 192.19 161.519 186.326 162.016L23.1496 175.966C17.3166 176.474 12.0457 171.168 11.4836 164.204L4.05978 78.5039C3.91245 76.8951 4.03792 75.2731 4.43096 73.7058C5.59757 68.9183 9.13981 65.251 13.5729 64.9234L176.749 50.9624C181.171 50.582 185.233 53.5517 187.259 58.0539C187.912 59.5384 188.313 61.1204 188.447 62.7357Z" fill="black"/>
<path d="M100.158 113.249L99 113.389L99.4682 117.25L100.626 117.11L100.158 113.249Z" fill="#0410A2"/>
<path d="M100.158 94.6076L99 94.7471L100.744 109.132L101.902 108.992L100.158 94.6076Z" fill="#0410A2"/>
<path d="M189.219 47.4115L199.888 135.299C200.747 142.443 196.568 148.89 190.587 149.609L23.2432 169.784C17.2617 170.503 11.6514 165.239 10.7818 158.085L0.112669 70.2077C-0.0903255 68.5551 -0.0186656 66.8804 0.324775 65.2511C1.38532 60.2944 4.86391 56.4369 9.41366 55.8874L176.757 35.7227C181.307 35.1732 185.634 38.0795 187.83 42.6451C188.553 44.1468 189.022 45.7573 189.219 47.4115Z" fill="#0410A2"/>
<path opacity="0.1" d="M193.473 42.6451L117.57 93.5746C113.855 96.1049 109.584 97.7072 105.116 98.2462C100.649 98.7851 96.1178 98.2449 91.9044 96.6712L6 65.2511C7.06055 60.2944 10.5392 56.4369 15.0889 55.8874L182.433 35.7227C186.951 35.1732 191.278 38.0795 193.473 42.6451Z" fill="black"/>
<path d="M166.703 61.6356L144.898 76.2624L137.761 81.0604L119.116 93.5735C115.498 96.0478 111.345 97.6377 106.995 98.2142C102.644 98.7908 98.2188 98.3378 94.0769 96.892L93.4088 96.6701L82.9518 92.8443L59.4076 84.231L48.3991 80.2044L35.9271 75.6388L35.0256 53.6669L33 4.84055L128.799 0.961914L165.314 28.5351L165.696 37.9093L166.703 61.6356Z" fill="#0410A2"/>
<path opacity="0.7" d="M166.703 61.6356L144.898 76.2624L137.761 81.0604L119.116 93.5735C115.498 96.0478 111.345 97.6377 106.995 98.2142C102.644 98.7908 98.2188 98.3378 94.0769 96.892L93.4088 96.6701L82.9518 92.8443L59.4076 84.231L48.3991 80.2044L35.9271 75.6388L35.0256 53.6669L33 4.84055L128.799 0.961914L165.314 28.5351L165.696 37.9093L166.703 61.6356Z" fill="#FAFAFA"/>
<g opacity="0.9">
<path d="M152.411 38.248L46.3558 42.5388C45.7642 42.5621 45.187 42.3541 44.7471 41.9592C44.3073 41.5643 44.0396 41.0138 44.0014 40.4251C43.9808 39.8374 44.1908 39.2648 44.5868 38.8288C44.9828 38.3927 45.5336 38.1276 46.1225 38.0894L152.177 33.7986C152.769 33.7754 153.346 33.9833 153.786 34.3782C154.226 34.7731 154.493 35.3236 154.532 35.9123C154.555 36.5008 154.346 37.0748 153.949 37.5115C153.553 37.9481 153 38.2125 152.411 38.248Z" fill="white"/>
<path d="M152.973 52.2943L46.9183 56.5851C46.3267 56.6084 45.7495 56.4004 45.3096 56.0055C44.8698 55.6107 44.6022 55.0601 44.5639 54.4714C44.5432 53.8826 44.7529 53.3088 45.1486 52.8711C45.5443 52.4334 46.0952 52.1659 46.685 52.1252L152.74 47.8344C153.331 47.8138 153.906 48.0227 154.346 48.4171C154.785 48.8114 155.053 49.3603 155.094 49.9481C155.112 50.5362 154.902 51.1085 154.506 51.5457C154.111 51.9828 153.562 52.251 152.973 52.2943Z" fill="white"/>
<path d="M153.546 66.329L47.4909 70.6198C46.8994 70.6431 46.3221 70.4351 45.8822 70.0402C45.4424 69.6454 45.1748 69.0948 45.1365 68.5061C45.1133 67.9177 45.3223 67.3436 45.7188 66.907C46.1153 66.4704 46.6678 66.206 47.2576 66.1705L153.312 61.8797C153.903 61.8565 154.479 62.0648 154.917 62.4599C155.355 62.8551 155.621 63.4056 155.656 63.9934C155.68 64.5801 155.472 65.1526 155.078 65.589C154.683 66.0253 154.134 66.2909 153.546 66.329Z" fill="white"/>
<path d="M144.106 76.2627L136.968 81.0608L58.6149 84.2313L47.6064 80.2047C47.698 80.1938 47.7906 80.1938 47.8822 80.2047L144.106 76.2627Z" fill="white"/>
<path d="M115.08 93.7539V93.8384C115.081 94.4135 114.863 94.9674 114.469 95.3875C114.075 95.8077 113.535 96.0625 112.959 96.1001L93.3283 96.8927L92.6601 96.6708L82.2031 92.845L112.779 91.5979C113.368 91.589 113.938 91.8091 114.368 92.2115C114.797 92.6139 115.053 93.167 115.08 93.7539Z" fill="white"/>
</g>
<path opacity="0.1" d="M118.515 28.5351L93.1464 27.4465L82 0.961914L118.515 28.5351Z" fill="#263238"/>
<path d="M118.515 28.5351L93.8993 24.3394L82 0.961914L118.515 28.5351Z" fill="#0410A2"/>
<path d="M110.993 55.9242C117.417 50.0459 117.843 40.0912 111.944 33.6896C106.045 27.2881 96.0555 26.8639 89.6316 32.7422C83.2076 38.6205 82.782 48.5752 88.6808 54.9767C94.5797 61.3783 104.569 61.8025 110.993 55.9242Z" fill="#DE5753"/>
<path d="M104.962 36.7363V52.5891H100.571V42.2108C99.9226 42.7088 99.2304 43.1474 98.5029 43.5213C97.6952 43.9039 96.8582 44.2219 96 44.4725V40.932C97.2448 40.5773 98.4132 39.9969 99.4468 39.2199C100.262 38.5514 100.918 37.7102 101.366 36.7575L104.962 36.7363Z" fill="white"/>
</svg>
