<svg width="259" height="228" viewBox="0 0 259 228" fill="none" xmlns="http://www.w3.org/2000/svg">
<path d="M198.834 114.35L195.405 117.196L191.265 115.548C190.975 115.433 190.687 115.72 190.803 116.01L192.451 120.151L189.604 123.579C189.405 123.819 189.589 124.181 189.9 124.161L194.347 123.874L196.729 127.64C196.895 127.904 197.297 127.84 197.374 127.538L198.474 123.22L202.793 122.119C203.095 122.042 203.158 121.641 202.895 121.474L199.128 119.093L199.416 114.646C199.436 114.335 199.074 114.15 198.834 114.35Z" fill="#FFDC64"/>
<path d="M187.726 118.887C188.109 118.949 189.514 119.452 190.328 119.75C190.456 119.797 190.426 119.985 190.289 119.989C189.423 120.013 187.93 120.044 187.548 119.982C187.246 119.933 187.041 119.648 187.09 119.345C187.139 119.043 187.424 118.838 187.726 118.887Z" fill="#FFF082"/>
<path d="M194.141 112.472C194.204 112.854 194.706 114.26 195.004 115.074C195.051 115.202 195.24 115.171 195.244 115.035C195.268 114.169 195.299 112.676 195.236 112.294C195.187 111.992 194.902 111.786 194.6 111.836C194.297 111.885 194.092 112.17 194.141 112.472Z" fill="#FFF082"/>
<path d="M203.184 116.46C202.839 116.635 201.652 117.541 200.967 118.072C200.86 118.156 200.946 118.326 201.077 118.288C201.91 118.048 203.341 117.624 203.687 117.449C203.96 117.31 204.069 116.976 203.93 116.703C203.791 116.43 203.457 116.321 203.184 116.46Z" fill="#FFF082"/>
<path d="M191.714 127.93C191.889 127.584 192.795 126.398 193.327 125.713C193.41 125.605 193.58 125.692 193.543 125.823C193.302 126.656 192.878 128.087 192.703 128.432C192.564 128.705 192.23 128.814 191.957 128.675C191.684 128.537 191.575 128.203 191.714 127.93Z" fill="#FFF082"/>
<path d="M201.495 127.002C201.222 126.728 200.375 125.499 199.888 124.781C199.811 124.668 199.947 124.533 200.059 124.61C200.777 125.096 202.006 125.943 202.28 126.217C202.496 126.434 202.496 126.785 202.28 127.001C202.063 127.218 201.712 127.218 201.495 127.002Z" fill="#FFF082"/>
<path d="M192.77 116.148L191.265 115.548C190.975 115.433 190.687 115.72 190.803 116.01L192.451 120.151L189.604 123.579C189.405 123.819 189.589 124.181 189.9 124.161L194.347 123.874L196.729 127.64C196.895 127.904 197.297 127.84 197.374 127.538L197.52 126.963C194.285 122.545 193.137 118.074 192.77 116.148Z" fill="#FFC850"/>
<path d="M124.462 3.88913L121.462 6.37988L117.839 4.93808C117.586 4.83713 117.334 5.08853 117.435 5.34219L118.877 8.96506L116.386 11.9651C116.212 12.1751 116.373 12.4919 116.646 12.4743L120.537 12.2226L122.62 15.5185C122.766 15.7493 123.117 15.6937 123.185 15.4291L124.148 11.6507L127.926 10.6877C128.191 10.6202 128.246 10.2691 128.016 10.1232L124.72 8.03968L124.971 4.14857C124.989 3.87613 124.672 3.71472 124.462 3.88913Z" fill="#FFDC64"/>
<path d="M119.157 5.4624L117.839 4.93811C117.586 4.83715 117.334 5.08855 117.435 5.34221L118.877 8.96509L116.386 11.9651C116.212 12.1751 116.373 12.4919 116.646 12.4743L120.537 12.2226L122.62 15.5185C122.766 15.7493 123.117 15.6937 123.185 15.4291L123.313 14.9262C120.482 11.0605 119.478 7.14827 119.157 5.4624Z" fill="#FFC850"/>
<rect x="39.9131" y="31.2227" width="15" height="3" rx="1.5" transform="rotate(-37 39.9131 31.2227)" fill="#FE4B20"/>
<rect x="220.107" y="18.8154" width="15" height="3" rx="1.5" transform="rotate(-37 220.107 18.8154)" fill="#FE4B20"/>
<rect x="244.107" y="89.8154" width="15" height="3" rx="1.5" transform="rotate(-37 244.107 89.8154)" fill="#FE4B20"/>
<rect x="76.1069" y="102.352" width="15" height="3" rx="1.5" transform="rotate(31 76.1069 102.352)" fill="#FE4B20"/>
<rect x="90.4668" y="42.0068" width="10" height="2" rx="1" transform="rotate(67 90.4668 42.0068)" fill="#9186F4"/>
<rect x="5.27808" y="42.7627" width="6" height="6" transform="rotate(42 5.27808 42.7627)" fill="#9186F4"/>
<rect x="28.293" y="143.155" width="6" height="6" transform="rotate(70 28.293 143.155)" fill="#9186F4"/>
<rect x="165.056" y="95.1553" width="6" height="6" transform="rotate(70 165.056 95.1553)" fill="#FE4B20"/>
<rect width="14.3669" height="2.95491" rx="1.47746" transform="matrix(0.843115 0.537734 -0.492617 0.870246 200.956 140.284)" fill="#FE4B20"/>
<rect width="9.57794" height="1.96994" rx="0.984971" transform="matrix(0.843115 0.537734 -0.492617 0.870246 245.126 129)" fill="#9186F4"/>
<rect x="181.648" y="54.3975" width="10" height="2" rx="1" transform="rotate(138 181.648 54.3975)" fill="#9186F4"/>
<path d="M118.608 24.68L129.967 14L141.207 24.7819L154.859 17.26L163.077 30.5039L178.171 26.6327L182.824 41.4896H198.411L199.243 57.0427L214.337 60.914L211.247 76.1954L224.916 83.7003L218.141 97.7253L229.5 108.388L219.448 120.291L227.802 133.45L215.101 142.483L219.924 157.289L205.389 162.875L206.374 178.428L190.889 180.228L187.985 195.543L172.534 193.421L165.912 207.531L151.48 201.639L141.547 213.66L129.033 204.373L116.434 213.542L106.62 201.435L92.1369 207.174L85.6508 193.013L70.1995 194.966L67.4319 179.634L51.9637 177.681L53.1013 162.145L38.6179 156.423L43.5759 141.651L30.9602 132.499L39.4499 119.425L29.5 107.42L40.9781 96.8763L34.3391 82.7664L48.0754 75.3974L45.138 60.099L60.2666 56.3805L61.2344 40.8274L76.8215 40.9802L81.6267 26.1572L96.6874 30.1813L105.024 17.0223L118.608 24.68Z" fill="#0410A2"/>
<path opacity="0.6" d="M219.448 120.274L229.5 108.388L218.141 97.7253L224.933 83.7003L211.264 76.1954L214.354 60.914L199.26 57.0427L198.428 41.4896H182.841L178.188 26.6327L163.094 30.5039L154.876 17.26L141.292 24.7819L130.052 14L118.693 24.68L105.109 17.0223L96.7723 30.1983L81.7116 26.1572L76.9064 40.9802L61.3193 40.8274L60.3515 56.3805L45.2229 60.099L48.1603 75.3804L34.424 82.7495L41.0629 96.8593L29.5 107.471L39.4499 119.476L30.9602 132.55L43.5759 141.702L38.6179 156.474L53.1013 162.196L51.9637 177.732L67.4319 179.685L70.1826 194.966L85.6508 193.014L92.1369 207.174L106.62 201.435L116.434 213.542L129.033 204.373L141.547 213.66L151.48 201.639L165.912 207.531L172.534 193.421L187.968 195.543L190.889 180.262L206.374 178.462L205.372 162.909L219.924 157.323L215.101 142.5L227.802 133.484L219.448 120.274ZM216.324 131.243L205.101 139.223L209.362 152.314L196.509 157.238L197.392 170.974L183.707 172.57L181.143 186.154L167.559 184.286L161.701 196.749L148.967 191.553L140.189 202.148L129.135 193.947L118.013 202.047L109.354 191.35L96.5515 196.443L90.8295 183.93L77.1611 185.627L74.733 172.044L61.1495 170.346L62.1683 156.627L49.3659 151.533L53.7465 138.493L42.6081 130.411L50.113 118.865L41.3177 108.269L51.5053 98.9478L45.4776 86.417L57.6178 79.9139L55.02 66.3304L68.3997 63.0534L69.2487 49.3171L83.002 49.4529L87.2468 36.3618L100.542 39.9275L107.911 28.2966L119.915 35.0884L129.933 25.6478L139.866 35.1733L151.921 28.5343L159.188 40.2331L172.517 36.8372L176.626 49.9793H190.397L191.127 63.7326L204.455 67.1285L201.739 80.6101L213.794 87.232L207.817 99.627L217.852 109.05L208.972 119.561L216.324 131.243Z" fill="#036EF2"/>
<path d="M81.9798 106.657C81.9798 106.657 90.583 105.172 94.8171 106.657C99.0513 108.141 116.966 138.708 116.966 138.708C116.966 138.708 151.717 90.9008 179.5 70C179.5 70 143.451 102.287 122.55 156.488C122.55 156.488 115.516 159.592 110.539 154.042C109.105 152.355 92.9615 124.841 89.8407 123.812C87.3947 122.986 79.5 123.391 79.5 123.391L81.9798 106.657Z" fill="white"/>
</svg>
